<svg width="362" height="448" viewBox="0 0 362 448" fill="none" xmlns="http://www.w3.org/2000/svg">
<g clip-path="url(#clip0_2247_278)">
<rect width="440" height="545" rx="48" fill="#EEF6F6"/>
<path d="M71.5258 183.765C68.8865 172.311 67.829 143.99 85.952 145.316C101.041 146.423 97.2892 174.394 96.1462 184.959C95.2478 193.278 108.283 193.213 109.175 184.959C111.277 165.505 111.924 129.764 83.3522 132.493C57.0359 135.014 54.1871 166.502 58.9622 187.228C60.8424 195.383 73.406 191.93 71.5258 183.765Z" fill="#132790"/>
<path d="M-49.6004 -116.728C-121.467 -82.2445 -142.591 13.9905 -114.529 83.7351C-99.7282 120.554 -71.8811 150.181 -33.3661 162.102C12.5229 176.297 65.2377 159.422 103.627 133.26C124.359 119.137 142.955 100.787 154.356 78.2285C164.578 57.9545 172.404 29.3465 160.879 8.01527C151.146 -10.0418 129.484 -12.6465 111.25 -9.58318C89.9943 -6.02327 70.2255 5.91639 53.7823 19.2815C37.6765 32.3585 24.0772 49.6004 13.0825 67.0734C2.74293 83.5177 -5.21152 101.688 -10.54 120.36C-20.2561 154.406 -20.971 191.957 -10.064 225.807C0.120273 257.33 20.7559 285.592 50.4198 301.245C84.8541 319.413 125.341 318.056 161.723 306.721C166.925 305.095 172.04 303.221 177.118 301.208C178.307 300.744 184.624 298.366 180.482 299.878C181.258 299.597 182.003 299.291 182.774 298.991C185.515 297.876 188.254 296.751 190.931 295.484C198.75 291.79 206.099 287.121 213.183 282.179C231.04 269.691 247.402 254.977 261.57 238.438C286.593 209.228 313.612 162.705 287.69 125.711C276.273 109.389 257.801 96.6217 237.484 95.7524C219.643 94.99 203.377 104.917 190.833 116.677C176.904 129.735 166.145 146.433 157.054 163.112C147.683 180.302 139.952 198.494 133.432 216.965C120.706 253.054 114.837 292.512 124.389 330.121C129.531 350.392 140.052 369.808 155.728 383.852C173.09 399.453 195.112 407.104 218.148 409.119C238.358 410.888 258.712 408.149 277.44 400.531C293.515 393.993 308.628 385.137 323.002 375.485C339.712 364.279 355.783 351.63 369.686 337.063C381.455 324.742 393.028 309.882 397.047 292.987C401.056 276.149 395.573 259.441 382.024 248.561C368.815 237.965 352.798 233.383 336.157 237.825C320.509 241.986 307.173 252.932 296.402 264.611C283.621 278.457 273.214 294.546 264.336 311.112C247.394 342.707 233.343 378.924 230.966 415.013C228.34 454.734 259.816 485.836 294.5 499.626C345.014 519.713 412.91 505.498 443.761 458.8C447.893 452.561 445.112 443.68 438.911 440.037C432.246 436.098 424.256 438.659 420.144 444.88C419.516 445.824 418.884 446.757 418.247 447.668C417.983 448.053 415.671 451.015 417.682 448.482C416.293 450.233 414.785 451.9 413.247 453.544C411.705 455.175 410.068 456.718 408.42 458.219C407.575 458.982 406.721 459.711 405.865 460.428C405.285 460.907 404.703 461.374 404.099 461.847C405.439 460.845 405.479 460.811 404.216 461.737C400.531 464.454 396.611 466.823 392.614 468.988C390.573 470.091 388.479 471.084 386.399 472.04C385.338 472.529 384.269 472.987 383.196 473.433C386.433 472.077 381.727 473.936 381.15 474.143C376.695 475.755 372.148 477.008 367.553 478.08C365.222 478.626 362.886 479.059 360.545 479.47C359.361 479.673 358.17 479.845 357.001 480.011C355.384 480.225 355.432 480.225 357.1 480.02C356.3 480.112 355.497 480.196 354.715 480.262C344.762 481.234 334.696 480.921 324.8 479.581C327.889 479.997 323.98 479.408 323.598 479.337C322.43 479.13 321.275 478.883 320.099 478.644C317.771 478.169 315.463 477.588 313.17 476.969C310.903 476.353 308.634 475.638 306.401 474.877C305.288 474.509 304.186 474.091 303.087 473.684C302.576 473.487 298.038 471.59 300.881 472.839C296.618 470.973 292.482 468.756 288.531 466.313C286.546 465.104 284.653 463.781 282.774 462.42C279.648 460.171 284.871 464.156 281.873 461.747C280.654 460.783 279.496 459.77 278.357 458.739C274.889 455.638 271.742 452.181 268.817 448.555C270.816 451.04 268.42 447.956 268.162 447.615C267.476 446.649 266.83 445.649 266.187 444.662C264.657 442.306 263.315 439.834 262.015 437.338C261.467 436.247 260.96 435.131 260.457 434.028C258.743 430.305 261.434 436.684 259.931 432.839C259.543 431.806 259.264 430.726 258.986 429.652C258.707 428.479 258.519 427.283 258.331 426.087C257.939 423.539 258.731 429.788 258.464 427.162C258.375 426.257 258.335 425.35 258.294 424.442C258.127 421.454 258.224 418.45 258.397 415.464C258.481 413.822 258.64 412.185 258.801 410.56C258.939 409.403 259.826 402.992 259.202 407.139C260.438 399.078 262.331 391.117 264.518 383.263C266.951 374.485 269.904 365.845 273.156 357.33C273.965 355.208 274.802 353.101 275.662 350.99C276.09 349.928 276.544 348.871 276.975 347.821C278.459 344.28 275.88 350.333 277.418 346.813C279.409 342.235 281.534 337.701 283.743 333.216C287.941 324.705 292.58 316.399 297.603 308.356C299.936 304.63 302.387 300.988 304.929 297.412C306.153 295.679 307.432 293.969 308.716 292.279C306.635 295.012 308.771 292.209 309.137 291.751C309.999 290.679 310.867 289.629 311.757 288.574C316.873 282.488 322.482 276.808 328.713 271.848C331.164 269.891 326.169 273.728 328.679 271.903C329.349 271.401 330.07 270.91 330.771 270.434C332.154 269.5 333.578 268.634 335.013 267.811C336.406 267.011 337.843 266.289 339.292 265.61C340.153 265.194 342.861 264.134 338.729 265.777C339.673 265.398 340.634 265.082 341.594 264.766C343.004 264.313 344.443 263.975 345.891 263.67C346.604 263.52 347.327 263.41 348.051 263.304C343.616 263.961 346.241 263.521 347.268 263.462C348.697 263.365 350.136 263.4 351.563 263.485C352.277 263.528 353.004 263.621 353.73 263.708C349.223 263.149 352.741 263.633 353.773 263.876C355.221 264.226 356.631 264.712 358.029 265.245C353.809 263.641 358.717 265.656 359.741 266.242C361.21 267.051 362.591 267.986 363.935 268.964C366.461 270.767 361.486 266.992 363.943 268.995C364.86 269.732 365.695 270.524 366.512 271.342C367.097 271.916 367.667 272.529 368.217 273.155C370.165 275.347 366.316 270.488 368.011 272.825C368.861 274.054 369.613 275.366 370.278 276.722C371.532 279.227 369.054 273.392 369.995 276.001C370.244 276.685 370.425 277.384 370.626 278.069C370.805 278.759 370.941 279.472 371.074 280.174C371.521 282.56 370.817 276.368 371.006 280.099C371.095 281.57 371.015 283.041 370.886 284.511C370.638 287.304 371.458 281.193 370.97 283.993C370.83 284.763 370.659 285.509 370.469 286.272C370.098 287.838 369.597 289.372 369.046 290.896C368.767 291.692 368.458 292.462 368.148 293.233C369.7 289.391 368.106 293.164 367.728 293.951C366.093 297.284 364.124 300.451 362.035 303.525C360.932 305.168 359.746 306.765 358.556 308.351C360.686 305.527 358.548 308.321 358.164 308.803C357.282 309.892 356.369 310.954 355.456 312.015C349.362 319.102 342.599 325.566 335.561 331.717C332.021 334.805 328.379 337.781 324.673 340.697C324.348 340.94 321.236 343.339 323.749 341.434C322.796 342.155 321.841 342.866 320.883 343.566C318.667 345.213 316.439 346.817 314.182 348.397C306.387 353.871 298.349 358.968 290.099 363.712C282.863 367.877 275.445 371.717 267.804 375.068C267 375.424 266.169 375.774 265.361 376.118C262.498 377.322 268.481 374.872 265.62 375.993C264.147 376.579 262.638 377.114 261.149 377.636C258.344 378.597 255.499 379.408 252.604 380.02C242.532 382.123 231.224 382.539 219.988 381.826C218.583 381.735 217.19 381.598 215.797 381.459C215.746 381.45 211.26 380.877 213.906 381.269C211.282 380.871 208.696 380.337 206.12 379.745C203.648 379.184 201.186 378.471 198.781 377.699C197.594 377.327 196.421 376.916 195.269 376.489C194.763 376.314 190.14 374.371 192.851 375.573C188.554 373.671 184.457 371.322 180.557 368.705C179.593 368.07 178.667 367.394 177.74 366.715C174.639 364.471 179.837 368.45 176.91 366.036C174.875 364.352 172.924 362.524 171.059 360.652C169.454 359.039 167.97 357.327 166.505 355.601C166.194 355.238 163.864 352.229 165.851 354.852C165.156 353.944 164.501 353.004 163.872 352.069C160.99 347.955 158.566 343.544 156.406 339.031C155.913 337.969 155.441 336.892 154.968 335.813C153.375 332.182 156.008 338.523 154.588 334.814C153.715 332.56 152.977 330.27 152.261 327.966C150.669 322.841 149.527 317.578 148.598 312.294C148.393 311.032 148.214 309.778 148.034 308.522C147.436 304.33 148.294 311.307 147.851 307.063C147.567 304.465 147.4 301.849 147.258 299.237C146.94 293.41 147.029 287.568 147.317 281.743C147.854 271.349 148.775 264.975 150.836 255.229C152.228 248.61 154.106 242.091 156.099 235.647C158.637 227.463 161.548 219.411 164.652 211.445C165.472 209.366 166.32 207.302 167.167 205.238C167.601 204.196 168.035 203.157 168.469 202.117C167.24 205.05 168.729 201.53 168.917 201.13C170.926 196.524 173.065 191.955 175.291 187.441C179.58 178.716 184.289 170.212 189.485 161.998C191.893 158.186 194.446 154.471 197.116 150.827C197.761 149.947 198.431 149.071 199.102 148.196C197.071 150.839 199.308 147.964 199.64 147.561C201.181 145.645 202.807 143.777 204.466 141.945C207.158 138.952 210.065 136.131 213.063 133.479C213.794 132.837 214.556 132.222 215.295 131.612C217.852 129.504 212.828 133.413 215.472 131.453C217.18 130.186 218.964 129.023 220.787 127.919C222.319 127.002 223.882 126.204 225.456 125.447C226.275 125.054 229.155 123.914 225.22 125.474C226.014 125.168 226.815 124.893 227.619 124.627C229.205 124.105 230.824 123.711 232.459 123.379C233.359 123.205 236.343 122.841 232.06 123.336C233.166 123.208 234.272 123.172 235.377 123.137C237.041 123.102 238.72 123.223 240.368 123.411C236.076 122.932 241.657 123.802 242.779 124.113C243.797 124.393 249.089 126.582 245.546 124.971C247.658 125.922 249.654 127.08 251.596 128.311C252.49 128.862 253.352 129.478 254.211 130.082C257.2 132.175 252.022 128.271 254.957 130.625C256.8 132.13 258.53 133.757 260.244 135.419C261.866 137.006 263.347 138.706 264.797 140.47C262.657 137.818 264.787 140.62 265.109 141.113C265.89 142.261 266.565 143.467 267.218 144.679C267.715 145.57 268.123 146.494 268.557 147.423C266.989 143.98 268.377 147.007 268.64 147.743C269.293 149.611 269.769 151.549 270.172 153.481C270.376 154.46 270.509 155.443 270.665 156.422C270.092 152.609 270.55 155.977 270.603 156.743C270.728 159.101 270.662 161.472 270.495 163.825C270.423 164.861 270.301 165.89 270.179 166.917C270.606 163.411 270.133 166.929 270.026 167.545C269.628 169.662 269.103 171.756 268.525 173.831C267.939 175.973 267.221 178.071 266.453 180.16C266.075 181.231 265.647 182.294 265.238 183.338C264.639 184.772 264.636 184.76 265.256 183.312C264.929 184.016 264.603 184.725 264.277 185.432C259.949 194.755 254.292 203.436 248.177 211.659C248.068 211.801 245.489 215.137 247.183 212.969C246.381 213.992 245.55 214.998 244.742 215.998C243.104 218.007 241.387 219.988 239.687 221.945C235.961 226.187 232.027 230.283 228.014 234.261C220.571 241.661 212.589 248.566 204.265 254.993C206.73 253.088 203.589 255.473 203.284 255.699C202.349 256.393 201.385 257.071 200.446 257.754C198.605 259.067 196.729 260.345 194.825 261.604C191.043 264.132 187.144 266.485 183.157 268.69C179.957 270.468 176.642 272.081 173.28 273.515C179.589 270.824 166.245 276.304 170.261 274.679C167.275 275.881 164.244 277.002 161.203 278.08C151.232 281.605 140.978 284.318 130.542 286.139C128.247 286.54 125.931 286.864 123.608 287.159C126.916 286.736 120.406 287.43 119.36 287.509C114.653 287.864 109.945 287.933 105.256 287.797C101.131 287.685 97.014 287.321 92.9262 286.789C89.5128 286.336 95.8837 287.261 92.4906 286.698C91.5286 286.54 90.5357 286.355 89.5678 286.174C87.347 285.74 85.1267 285.213 82.9213 284.652C79.2594 283.705 75.6314 282.515 72.0889 281.187C71.2047 280.861 70.3373 280.506 69.4933 280.147C66.4656 278.936 72.26 281.38 69.3016 280.061C67.3539 279.183 65.4323 278.219 63.5503 277.22C60.3486 275.523 57.2392 273.621 54.2439 271.597C52.7478 270.591 51.3086 269.523 49.8415 268.442C53.091 270.887 47.9426 266.815 47.0652 266.047C44.373 263.695 41.8076 261.177 39.3615 258.559C38.1259 257.248 36.9503 255.888 35.7746 254.528C35.208 253.836 34.6386 253.133 34.0691 252.43C31.61 249.386 34.9151 253.64 33.4633 251.681C28.9251 245.563 25.0568 238.943 21.7343 232.09C20.9131 230.413 20.1595 228.716 19.4262 227.005C19.0921 226.275 17.8859 223.203 19.3869 226.947C19.0176 226.081 18.6904 225.189 18.3665 224.312C16.9091 220.455 15.6729 216.517 14.5731 212.543C13.514 208.821 12.6822 205.04 11.9184 201.242C11.5438 199.324 11.2146 197.394 10.9082 195.458C10.752 194.479 10.6214 193.506 10.4879 192.52C9.93305 188.499 10.6078 193.734 10.329 191.249C9.42319 182.869 9.24591 174.401 9.59025 165.982C9.7532 161.831 10.1143 157.696 10.5745 153.569C10.6795 152.569 11.5807 146.304 11.0517 149.79C11.4129 147.343 11.8731 144.904 12.3357 142.475C14.0694 133.617 16.5157 124.891 19.4763 116.373C20.2228 114.291 20.9965 112.222 21.7966 110.161C22.2051 109.116 22.619 108.091 23.0328 107.067C23.2098 106.627 24.696 103.187 23.384 106.175C25.3491 101.682 27.5066 97.2772 29.8048 92.9477C34.3273 84.378 39.5545 76.1907 45.2895 68.3737C45.986 67.4117 46.7113 66.4666 47.4335 65.5102C45.5878 67.9334 48.021 64.7823 48.2438 64.519C49.7425 62.6285 51.3025 60.7875 52.8654 58.9579C56.3286 54.9162 59.9808 51.0437 63.7593 47.2839C72.2192 38.8508 77.1541 35.0638 87.076 29.0988C91.2943 26.5719 95.7059 24.3245 100.198 22.2936C100.633 22.1015 104.313 20.5852 101.151 21.854C102.226 21.4191 103.334 21.0193 104.42 20.6253C106.879 19.7316 109.377 18.9855 111.893 18.312C113.955 17.7581 116.025 17.3257 118.108 16.9478C118.823 16.8069 122.339 16.343 118.48 16.7937C119.445 16.6805 120.423 16.6216 121.399 16.5515C123.256 16.4234 125.129 16.4487 126.993 16.5343C127.877 16.5775 128.774 16.6728 129.649 16.7763C125.578 16.3109 129.441 16.8178 130.346 17.0372C131.127 17.2426 131.918 17.4911 132.69 17.757C135.493 18.6633 129.834 16.3656 132.431 17.5987C133.537 18.127 137.673 21.1907 134.217 18.4162C135.191 19.1843 138.427 23.1706 135.785 19.6073C136.637 20.746 139.022 26.221 137.492 22.1794C138.166 23.9404 138.572 25.7945 138.905 27.6435C139.525 31.0723 138.654 24.5166 138.937 28.1437C139.01 29.268 139.034 30.3948 139.033 31.5162C139.07 38.1273 138.478 40.1497 136.799 46.8764C135.977 50.1663 134.947 53.3986 133.885 56.605C133.353 58.2025 132.767 59.78 132.153 61.3407C133.094 58.9813 131.336 63.0576 131.319 63.0839C128.768 68.4981 125.629 73.6086 122.241 78.5027C119.587 82.2993 116.836 85.5347 112.715 89.9375C108.424 94.5293 103.752 98.7691 98.9232 102.778C96.1517 105.089 96.0434 105.139 93.577 106.943C91.1927 108.689 88.7388 110.354 86.2506 111.979C80.8444 115.536 75.2233 118.73 69.4734 121.708C58.3383 127.48 49.8542 130.757 37.2528 134.326C25.3983 137.69 15.7923 139.251 5.37117 139.722C-13.3595 140.581 -30.5488 135.871 -45.7358 126.999C-49.4156 124.859 -52.9035 122.429 -56.3078 119.854C-53.5963 121.906 -58.4677 117.969 -59.2446 117.307C-61.0671 115.695 -62.8407 113.99 -64.5742 112.253C-67.5495 109.275 -70.3108 106.093 -72.9521 102.813C-75.201 100.02 -71.207 105.157 -73.3557 102.283C-73.9861 101.438 -74.5968 100.576 -75.2074 99.7144C-76.6266 97.693 -77.9631 95.6163 -79.2572 93.5166C-81.5046 89.8854 -83.5185 86.1262 -85.4247 82.3149C-86.36 80.3842 -87.253 78.4305 -88.1009 76.4627C-88.3706 75.8881 -89.7358 72.4821 -88.3707 75.8881C-88.9121 74.5434 -89.4273 73.2064 -89.9233 71.85C-93.0524 63.3079 -95.3375 54.468 -96.9472 45.5217C-97.2459 43.7099 -97.5449 41.8959 -97.7958 40.0815C-97.9113 39.3533 -98.0019 38.6284 -98.0946 37.8944C-97.632 41.4655 -98.1048 37.7615 -98.1618 37.166C-98.5528 33.4966 -98.7768 29.8178 -98.9295 26.1329C-99.2122 18.7571 -98.9673 11.3591 -98.2725 4.01453C-98.1178 2.1754 -97.8897 0.339109 -97.6586 -1.48587C-97.5789 -2.20866 -97.4793 -2.94878 -97.3763 -3.67518C-97.8216 -0.334796 -97.2916 -4.00457 -97.2074 -4.52269C-96.593 -8.1465 -95.8481 -11.7337 -95.0016 -15.3036C-93.3202 -22.3943 -91.0697 -29.3461 -88.3853 -36.1193C-88.1212 -36.7856 -87.8578 -37.4542 -87.5716 -38.1285C-88.8561 -35.0341 -87.4473 -38.3979 -87.2337 -38.884C-86.4713 -40.5289 -85.7037 -42.1532 -84.8853 -43.7689C-83.2933 -46.9863 -81.5322 -50.1117 -79.6864 -53.1912C-77.8354 -56.2502 -75.8379 -59.2115 -73.7529 -62.1154C-73.343 -62.6861 -72.9096 -63.2604 -72.474 -63.8256C-70.2928 -66.7325 -74.2531 -61.6134 -71.9761 -64.4312C-70.8787 -65.8113 -69.7026 -67.1682 -68.5206 -68.5023C-66.1601 -71.1843 -63.6391 -73.714 -61.0252 -76.1659C-59.7195 -77.3964 -58.3745 -78.5692 -57.0016 -79.7274C-56.3876 -80.2588 -51.954 -83.7347 -54.7748 -81.6145C-48.9162 -86.0467 -42.5423 -89.7981 -35.9465 -92.9725C-29.197 -96.2082 -27.351 -105.569 -30.8693 -111.679C-34.7927 -118.513 -42.8735 -119.958 -49.6004 -116.728Z" fill="#F8CB5F"/>
<path d="M150.296 -342.776C78.4303 -308.292 57.3055 -212.057 85.3677 -142.313C100.169 -105.494 128.016 -75.8671 166.531 -63.9465C212.42 -49.7514 265.135 -66.6258 303.524 -92.788C324.255 -106.911 342.852 -125.261 354.253 -147.82C364.475 -168.093 372.3 -196.701 360.776 -218.033C351.043 -236.09 329.381 -238.694 311.147 -235.631C289.891 -232.071 270.122 -220.132 253.679 -206.766C237.573 -193.689 223.974 -176.448 212.979 -158.975C202.64 -142.53 194.685 -124.36 189.357 -105.688C179.641 -71.6423 178.926 -34.0909 189.833 -0.240697C200.017 31.2824 220.653 59.5443 250.317 75.1971C284.751 93.365 325.238 92.0079 361.62 80.6729C366.822 79.0471 371.937 77.1729 377.015 75.1602C378.204 74.696 384.52 72.3177 380.379 73.8295C381.155 73.5494 381.9 73.2433 382.67 72.9428C385.412 71.8285 388.15 70.7029 390.828 69.4356C398.647 65.7423 405.996 61.0733 413.08 56.1312C430.937 43.6434 447.298 28.9289 461.467 12.3901C486.49 -16.8199 513.509 -63.3432 487.587 -100.336C476.17 -116.659 457.698 -129.426 437.381 -130.296C419.54 -131.058 403.274 -121.131 390.73 -109.37C376.801 -96.3127 366.042 -79.6149 356.951 -62.9357C347.579 -45.7461 339.849 -27.5535 333.329 -9.08255C320.603 27.0062 314.733 66.4641 324.285 104.073C329.428 124.344 339.949 143.76 355.624 157.804C372.987 173.405 395.009 181.056 418.045 183.071C438.255 184.84 458.608 182.101 477.337 174.483C493.412 167.945 508.525 159.089 522.898 149.437C539.609 138.231 555.68 125.582 569.583 111.015C581.352 98.6938 592.925 83.8344 596.943 66.9387C600.953 50.1011 595.47 33.393 581.921 22.5126C568.712 11.9173 552.695 7.33525 536.054 11.7772C520.406 15.9385 507.07 26.8842 496.299 38.563C483.518 52.4092 473.111 68.498 464.233 85.064C447.291 116.659 433.24 152.876 430.863 188.965C428.236 228.686 459.713 259.788 494.397 273.578C544.911 293.665 612.807 279.45 643.658 232.752C647.79 226.513 645.009 217.632 638.808 213.989C632.143 210.05 624.152 212.611 620.041 218.832C619.412 219.776 618.781 220.709 618.144 221.62C617.88 222.005 615.568 224.967 617.579 222.434C616.189 224.185 614.682 225.852 613.143 227.496C611.602 229.127 609.965 230.67 608.317 232.171C607.472 232.934 606.618 233.663 605.761 234.38C605.182 234.859 604.6 235.326 603.996 235.799C605.336 234.797 605.376 234.763 604.112 235.689C600.428 238.406 596.508 240.775 592.511 242.94C590.47 244.043 588.376 245.037 586.296 245.992C585.235 246.481 584.165 246.939 583.093 247.385C586.33 246.029 581.623 247.888 581.047 248.095C576.592 249.707 572.044 250.96 567.45 252.032C565.119 252.578 562.783 253.011 560.442 253.422C559.258 253.625 558.066 253.797 556.898 253.963C555.281 254.177 555.329 254.177 556.997 253.972C556.196 254.064 555.394 254.148 554.611 254.214C544.659 255.186 534.593 254.873 524.697 253.533C527.786 253.949 523.877 253.36 523.495 253.289C522.327 253.082 521.172 252.835 519.996 252.596C517.668 252.121 515.36 251.54 513.067 250.921C510.799 250.305 508.53 249.59 506.298 248.829C505.185 248.461 504.083 248.043 502.984 247.636C502.473 247.439 497.935 245.542 500.778 246.791C496.515 244.925 492.379 242.708 488.427 240.265C486.442 239.056 484.549 237.733 482.671 236.372C479.545 234.123 484.768 238.108 481.77 235.699C480.551 234.735 479.392 233.722 478.254 232.691C474.786 229.59 471.638 226.133 468.714 222.507C470.713 224.992 468.316 221.908 468.059 221.567C467.373 220.601 466.726 219.601 466.084 218.614C464.554 216.258 463.212 213.786 461.912 211.29C461.363 210.199 460.857 209.083 460.354 207.98C458.64 204.257 461.331 210.636 459.828 206.791C459.44 205.758 459.161 204.678 458.883 203.604C458.604 202.431 458.416 201.235 458.228 200.039C457.836 197.491 458.627 203.74 458.361 201.114C458.272 200.209 458.232 199.302 458.191 198.394C458.024 195.406 458.12 192.402 458.294 189.416C458.378 187.774 458.537 186.137 458.698 184.512C458.835 183.355 459.723 176.944 459.099 181.091C460.335 173.03 462.228 165.069 464.415 157.215C466.848 148.437 469.801 139.797 473.053 131.282C473.862 129.16 474.699 127.053 475.559 124.942C475.987 123.88 476.441 122.823 476.872 121.773C478.356 118.232 475.777 124.285 477.315 120.765C479.306 116.188 481.43 111.653 483.64 107.168C487.838 98.6574 492.477 90.3506 497.5 82.3082C499.833 78.5824 502.284 74.9399 504.826 71.3637C506.05 69.6311 507.329 67.9208 508.613 66.231C506.532 68.9643 508.667 66.1612 509.034 65.7034C509.896 64.6311 510.764 63.5814 511.654 62.5258C516.77 56.44 522.379 50.7598 528.61 45.8005C531.061 43.8434 526.066 47.6797 528.576 45.8553C529.246 45.3531 529.967 44.8619 530.668 44.3856C532.051 43.4525 533.475 42.5861 534.91 41.7629C536.303 40.9628 537.74 40.2407 539.188 39.5619C540.05 39.1458 542.757 38.0864 538.626 39.729C539.57 39.3497 540.53 39.034 541.491 38.7183C542.901 38.265 544.34 37.9274 545.788 37.6216C546.501 37.4716 547.224 37.3624 547.948 37.2556C543.513 37.9133 546.138 37.4733 547.164 37.4142C548.593 37.3167 550.033 37.3521 551.46 37.4366C552.174 37.4799 552.901 37.5732 553.626 37.6597C549.119 37.101 552.638 37.5854 553.67 37.8276C555.118 38.1781 556.528 38.6643 557.926 39.1971C553.706 37.5932 558.614 39.608 559.638 40.1937C561.107 41.0035 562.488 41.9379 563.831 42.9158C566.358 44.7193 561.383 40.9444 563.84 42.9475C564.757 43.6842 565.592 44.4762 566.409 45.2944C566.994 45.8677 567.564 46.4808 568.114 47.1066C570.062 49.2991 566.212 44.4396 567.907 46.7773C568.758 48.0059 569.509 49.3182 570.175 50.6744C571.428 53.1793 568.951 47.3435 569.892 49.9533C570.141 50.6371 570.322 51.3364 570.523 52.0206C570.701 52.7107 570.837 53.4239 570.97 54.1257C571.418 56.5118 570.714 50.3199 570.903 54.0512C570.992 55.5223 570.912 56.9934 570.783 58.4627C570.535 61.2557 571.355 55.1452 570.867 57.9446C570.727 58.7145 570.556 59.4608 570.366 60.2243C569.995 61.7899 569.494 63.3235 568.943 64.8485C568.664 65.6445 568.354 66.4145 568.045 67.1846C569.596 63.3432 568.002 67.1156 567.624 67.9033C565.989 71.2359 564.021 74.4027 561.931 77.4772C560.829 79.1201 559.642 80.7171 558.453 82.3027C560.583 79.4792 558.445 82.2731 558.061 82.7549C557.179 83.8445 556.266 84.906 555.352 85.9674C549.259 93.0537 542.496 99.5184 535.458 105.669C531.918 108.757 528.276 111.733 524.57 114.649C524.245 114.892 521.133 117.291 523.646 115.386C522.693 116.107 521.738 116.818 520.779 117.518C518.563 119.165 516.336 120.769 514.079 122.349C506.284 127.823 498.246 132.92 489.996 137.664C482.76 141.829 475.342 145.669 467.701 149.02C466.896 149.376 466.066 149.726 465.258 150.07C462.394 151.274 468.378 148.824 465.517 149.945C464.044 150.531 462.535 151.066 461.046 151.588C458.24 152.549 455.396 153.361 452.5 153.972C442.428 156.075 431.121 156.491 419.885 155.778C418.48 155.687 417.087 155.55 415.694 155.411C415.643 155.402 411.156 154.829 413.803 155.221C411.179 154.823 408.593 154.289 406.017 153.697C403.545 153.136 401.083 152.423 398.678 151.651C397.491 151.279 396.318 150.868 395.165 150.441C394.66 150.266 390.037 148.323 392.747 149.525C388.451 147.624 384.353 145.274 380.454 142.657C379.49 142.022 378.564 141.346 377.637 140.667C374.536 138.423 379.733 142.402 376.807 139.988C374.772 138.304 372.821 136.476 370.955 134.604C369.351 132.991 367.867 131.279 366.402 129.553C366.09 129.19 363.761 126.181 365.748 128.804C365.053 127.896 364.398 126.956 363.769 126.021C360.887 121.907 358.463 117.496 356.302 112.983C355.81 111.921 355.338 110.844 354.865 109.765C353.272 106.134 355.905 112.475 354.485 108.766C353.612 106.512 352.874 104.222 352.157 101.918C350.566 96.7929 349.424 91.5301 348.494 86.2465C348.289 84.9845 348.111 83.7303 347.931 82.4738C347.332 78.2817 348.191 85.2594 347.748 81.0148C347.464 78.4171 347.297 75.8013 347.155 73.1888C346.836 67.3624 346.926 61.5204 347.214 55.695C347.75 45.3012 348.672 38.9272 350.733 29.1813C352.125 22.5625 354.002 16.0435 355.996 9.59869C358.534 1.41514 361.445 -6.63705 364.548 -14.6032C365.368 -16.6818 366.216 -18.7458 367.064 -20.8099C367.498 -21.8516 367.932 -22.8911 368.366 -23.9306C367.137 -20.9981 368.626 -24.5182 368.814 -24.9178C370.822 -29.5237 372.962 -34.0931 375.188 -38.6074C379.476 -47.3322 384.186 -55.8363 389.382 -64.0496C391.789 -67.8624 394.343 -71.5774 397.013 -75.2205C397.658 -76.1013 398.328 -76.9766 398.999 -77.8518C396.967 -75.2088 399.205 -78.0843 399.537 -78.4872C401.078 -80.4031 402.704 -82.2708 404.363 -84.1034C407.055 -87.0962 409.962 -89.9165 412.96 -92.5693C413.691 -93.2108 414.452 -93.8263 415.192 -94.4359C417.749 -96.5439 412.725 -92.6346 415.369 -94.5955C417.077 -95.8621 418.861 -97.0246 420.684 -98.1294C422.216 -99.0455 423.779 -99.8435 425.353 -100.601C426.172 -100.994 429.052 -102.134 425.117 -100.574C425.911 -100.88 426.712 -101.155 427.516 -101.42C429.102 -101.943 430.721 -102.337 432.356 -102.669C433.256 -102.843 436.24 -103.207 431.957 -102.712C433.063 -102.84 434.168 -102.876 435.274 -102.911C436.937 -102.946 438.617 -102.825 440.265 -102.637C435.972 -103.116 441.554 -102.246 442.676 -101.935C443.694 -101.655 448.986 -99.4659 445.443 -101.077C447.555 -100.126 449.551 -98.9677 451.493 -97.7374C452.387 -97.1859 453.248 -96.5704 454.107 -95.9663C457.096 -93.8729 451.919 -97.777 454.854 -95.4227C456.697 -93.9176 458.426 -92.2909 460.141 -90.6289C461.762 -89.0424 463.244 -87.3422 464.694 -85.5781C462.554 -88.2297 464.684 -85.4279 465.006 -84.9345C465.787 -83.7873 466.462 -82.5813 467.115 -81.3694C467.612 -80.4782 468.02 -79.5544 468.454 -78.6252C466.886 -82.0683 468.274 -79.0412 468.537 -78.3051C469.189 -76.4369 469.666 -74.4992 470.069 -72.5666C470.273 -71.5877 470.406 -70.605 470.562 -69.6258C469.988 -73.4394 470.447 -70.0708 470.5 -69.3047C470.625 -66.9468 470.559 -64.576 470.392 -62.2227C470.32 -61.1871 470.198 -60.1581 470.076 -59.1313C470.503 -62.6365 470.03 -59.1195 469.923 -58.5033C469.525 -56.3859 469 -54.2915 468.422 -52.2171C467.836 -50.0755 467.118 -47.9772 466.35 -45.8876C465.972 -44.8167 465.544 -43.7544 465.135 -42.7095C464.536 -41.2763 464.533 -41.2877 465.152 -42.7358C464.826 -42.0316 464.5 -41.3226 464.174 -40.6161C459.846 -31.2927 454.189 -22.6119 448.074 -14.3893C447.965 -14.2474 445.386 -10.9109 447.08 -13.0793C446.278 -12.0563 445.447 -11.0501 444.639 -10.0498C443.001 -8.04106 441.284 -6.0602 439.584 -4.10329C435.858 0.139468 431.924 4.23498 427.911 8.21268C420.468 15.6131 412.486 22.5183 404.162 28.9452C406.626 27.0403 403.486 29.4247 403.181 29.6511C402.246 30.3453 401.282 31.0227 400.343 31.7056C398.501 33.0187 396.626 34.2969 394.722 35.5559C390.94 38.084 387.04 40.4368 383.054 42.6423C379.854 44.4198 376.539 46.0331 373.177 47.4673C379.486 44.7763 366.142 50.256 370.157 48.6314C367.172 49.8329 364.141 50.954 361.099 52.0319C351.128 55.5565 340.875 58.2702 330.439 60.0913C328.144 60.4924 325.828 60.8163 323.505 61.1107C326.813 60.6882 320.303 61.3824 319.257 61.461C314.55 61.816 309.842 61.8855 305.153 61.749C301.028 61.6365 296.911 61.2727 292.823 60.7415C289.41 60.288 295.781 61.2133 292.387 60.6505C291.425 60.4919 290.433 60.3074 289.465 60.1261C287.244 59.6918 285.024 59.1654 282.818 58.6036C279.156 57.6574 275.528 56.4674 271.986 55.1392C271.102 54.8128 270.234 54.4579 269.39 54.0993C266.362 52.8877 272.157 55.3323 269.198 54.0132C267.251 53.1355 265.329 52.1712 263.447 51.1724C260.245 49.4754 257.136 47.5728 254.141 45.5488C252.645 44.5426 251.205 43.4755 249.738 42.3939C252.988 44.8389 247.839 40.7675 246.962 39.9987C244.27 37.6471 241.704 35.1295 239.258 32.511C238.023 31.2001 236.847 29.8399 235.671 28.4797C235.105 27.788 234.535 27.085 233.966 26.382C231.507 23.3382 234.812 27.5924 233.36 25.6326C228.822 19.5148 224.954 12.8949 221.631 6.04201C220.81 4.36513 220.056 2.66836 219.323 0.956656C218.989 0.226816 217.783 -2.84481 219.284 0.899057C218.914 0.0329806 218.587 -0.858508 218.263 -1.73631C216.806 -5.59308 215.57 -9.53118 214.47 -13.5045C213.411 -17.2267 212.579 -21.0077 211.815 -24.8061C211.441 -26.7242 211.111 -28.654 210.805 -30.5896C210.649 -31.5688 210.518 -32.5425 210.385 -33.5275C209.83 -37.5494 210.505 -32.3138 210.226 -34.7989C209.32 -43.1787 209.143 -51.647 209.487 -60.066C209.65 -64.2175 210.011 -68.3522 210.471 -72.4786C210.576 -73.4792 211.478 -79.7438 210.949 -76.2583C211.31 -78.7053 211.77 -81.1438 212.233 -83.5733C213.966 -92.4308 216.413 -101.157 219.373 -109.675C220.12 -111.757 220.893 -113.826 221.693 -115.887C222.102 -116.932 222.516 -117.957 222.93 -118.981C223.107 -119.421 224.593 -122.861 223.281 -119.873C225.246 -124.366 227.403 -128.771 229.702 -133.1C234.224 -141.67 239.451 -149.857 245.186 -157.674C245.883 -158.636 246.608 -159.581 247.33 -160.538C245.485 -158.115 247.918 -161.266 248.141 -161.529C249.639 -163.419 251.199 -165.26 252.762 -167.09C256.225 -171.132 259.878 -175.004 263.656 -178.764C272.116 -187.197 277.051 -190.984 286.973 -196.949C291.191 -199.476 295.603 -201.723 300.095 -203.754C300.53 -203.947 304.21 -205.463 301.048 -204.194C302.123 -204.629 303.231 -205.029 304.317 -205.423C306.776 -206.316 309.274 -207.062 311.79 -207.736C313.852 -208.29 315.922 -208.722 318.005 -209.1C318.72 -209.241 322.235 -209.705 318.377 -209.254C319.342 -209.368 320.32 -209.426 321.296 -209.496C323.153 -209.625 325.026 -209.599 326.89 -209.514C327.774 -209.47 328.671 -209.375 329.546 -209.272C325.475 -209.737 329.338 -209.23 330.243 -209.011C331.024 -208.805 331.815 -208.557 332.587 -208.291C335.39 -207.385 329.73 -209.682 332.327 -208.449C333.433 -207.921 337.57 -204.857 334.114 -207.632C335.088 -206.864 338.324 -202.877 335.682 -206.441C336.534 -205.302 338.919 -199.827 337.389 -203.869C338.063 -202.108 338.469 -200.253 338.802 -198.404C339.421 -194.976 338.551 -201.531 338.834 -197.904C338.907 -196.78 338.931 -195.653 338.93 -194.532C338.967 -187.921 338.375 -185.898 336.696 -179.172C335.874 -175.882 334.844 -172.649 333.782 -169.443C333.25 -167.845 332.664 -166.268 332.049 -164.707C332.991 -167.067 331.233 -162.99 331.215 -162.964C328.664 -157.55 325.526 -152.439 322.138 -147.545C319.484 -143.749 316.733 -140.513 312.612 -136.11C308.321 -131.519 303.649 -127.279 298.82 -123.27C296.049 -120.959 295.94 -120.909 293.474 -119.105C291.09 -117.359 288.636 -115.694 286.147 -114.069C280.741 -110.512 275.12 -107.318 269.37 -104.34C258.235 -98.568 249.751 -95.2914 237.15 -91.7224C225.295 -88.3583 215.689 -86.7972 205.268 -86.3263C186.537 -85.4667 169.348 -90.1772 154.161 -99.0489C150.481 -101.189 146.993 -103.619 143.589 -106.194C146.301 -104.142 141.429 -108.079 140.652 -108.741C138.83 -110.353 137.056 -112.058 135.323 -113.795C132.347 -116.773 129.586 -119.955 126.945 -123.235C124.696 -126.028 128.69 -120.891 126.541 -123.765C125.911 -124.61 125.3 -125.472 124.689 -126.334C123.27 -128.355 121.934 -130.432 120.64 -132.531C118.392 -136.163 116.378 -139.922 114.472 -143.733C113.537 -145.664 112.644 -147.618 111.796 -149.585C111.526 -150.16 110.161 -153.566 111.526 -150.16C110.985 -151.505 110.47 -152.842 109.974 -154.198C106.844 -162.74 104.559 -171.58 102.95 -180.526C102.651 -182.338 102.352 -184.152 102.101 -185.966C101.986 -186.695 101.895 -187.42 101.802 -188.154C102.265 -184.583 101.792 -188.286 101.735 -188.882C101.344 -192.551 101.12 -196.23 100.967 -199.915C100.685 -207.291 100.93 -214.689 101.624 -222.033C101.779 -223.873 102.007 -225.709 102.238 -227.534C102.318 -228.257 102.418 -228.997 102.521 -229.723C102.075 -226.383 102.605 -230.053 102.689 -230.571C103.304 -234.194 104.049 -237.782 104.895 -241.352C106.577 -248.442 108.827 -255.394 111.512 -262.167C111.776 -262.834 112.039 -263.502 112.325 -264.177C111.041 -261.082 112.45 -264.446 112.663 -264.932C113.426 -266.577 114.193 -268.201 115.012 -269.817C116.604 -273.034 118.365 -276.16 120.21 -279.239C122.061 -282.298 124.059 -285.259 126.144 -288.163C126.554 -288.734 126.987 -289.308 127.423 -289.874C129.604 -292.78 125.644 -287.661 127.921 -290.479C129.018 -291.859 130.194 -293.216 131.376 -294.55C133.737 -297.232 136.258 -299.762 138.872 -302.214C140.177 -303.444 141.522 -304.617 142.895 -305.775C143.509 -306.307 147.943 -309.783 145.122 -307.662C150.981 -312.095 157.355 -315.846 163.95 -319.02C170.7 -322.256 172.546 -331.617 169.028 -337.727C165.104 -344.56 157.023 -346.006 150.296 -342.776Z" fill="#F8CB5F"/>
<path d="M-218.286 139.749C-290.152 174.232 -311.277 270.467 -283.214 340.212C-268.413 377.031 -240.566 406.658 -202.051 418.578C-156.162 432.773 -103.448 415.899 -65.0579 389.737C-44.3267 375.614 -25.7303 357.264 -14.3296 334.705C-4.10739 314.431 3.71831 285.823 -7.80624 264.492C-17.5392 246.435 -39.2012 243.83 -57.435 246.894C-78.691 250.453 -98.4598 262.393 -114.903 275.758C-131.009 288.835 -144.608 306.077 -155.603 323.55C-165.942 339.994 -173.897 358.165 -179.225 376.837C-188.941 410.882 -189.656 448.434 -178.749 482.284C-168.565 513.807 -147.929 542.069 -118.265 557.722C-83.8312 575.89 -43.3438 574.533 -6.96241 563.198C-1.75984 561.572 3.35439 559.698 8.43273 557.685C9.62151 557.221 15.9383 554.842 11.7969 556.354C12.5728 556.074 13.3178 555.768 14.0883 555.467C16.8299 554.353 19.5683 553.228 22.246 551.96C30.0649 548.267 37.4135 543.598 44.4975 538.656C62.3552 526.168 78.7163 511.454 92.885 494.915C117.908 465.705 144.927 419.181 119.005 382.188C107.588 365.866 89.1156 353.098 68.799 352.229C50.9578 351.467 34.6919 361.393 22.148 373.154C8.21856 386.212 -2.54009 402.91 -11.6314 419.589C-21.0027 436.779 -28.7335 454.971 -35.2531 473.442C-47.9795 509.531 -53.8487 548.989 -44.2967 586.598C-39.1538 606.869 -28.6334 626.285 -12.9577 640.328C4.40518 655.93 26.4264 663.58 49.4629 665.596C69.6727 667.364 90.0262 664.626 108.755 657.008C124.83 650.47 139.943 641.613 154.316 631.962C171.027 620.756 187.098 608.106 201.001 593.54C212.769 581.218 224.343 566.359 228.361 549.463C232.37 532.626 226.888 515.918 213.339 505.037C200.13 494.442 184.113 489.86 167.472 494.302C151.824 498.463 138.488 509.409 127.716 521.088C114.936 534.934 104.529 551.023 95.6504 567.589C78.7085 599.184 64.658 635.401 62.2806 671.49C59.6542 711.21 91.1305 742.312 125.815 756.103C176.329 776.19 244.225 761.975 275.076 715.276C279.207 709.038 276.427 700.156 270.226 696.514C263.561 692.575 255.57 695.135 251.459 701.357C250.83 702.301 250.199 703.234 249.562 704.144C249.298 704.53 246.986 707.492 248.997 704.958C247.607 706.709 246.099 708.377 244.561 710.021C243.019 711.652 241.383 713.195 239.735 714.695C238.89 715.458 238.036 716.187 237.179 716.905C236.6 717.383 236.018 717.851 235.413 718.324C236.754 717.322 236.793 717.288 235.53 718.214C231.846 720.93 227.926 723.3 223.929 725.465C221.888 726.568 219.793 727.561 217.714 728.517C216.653 729.006 215.583 729.464 214.511 729.91C217.748 728.554 213.041 730.413 212.465 730.619C208.01 732.232 203.462 733.485 198.868 734.557C196.537 735.102 194.201 735.536 191.859 735.946C190.676 736.15 189.484 736.322 188.315 736.488C186.698 736.702 186.747 736.701 188.414 736.496C187.614 736.589 186.812 736.672 186.029 736.739C176.077 737.711 166.011 737.398 156.115 736.058C159.204 736.474 155.295 735.884 154.913 735.813C153.744 735.606 152.59 735.359 151.414 735.12C149.085 734.646 146.778 734.065 144.485 733.446C142.217 732.83 139.948 732.115 137.716 731.354C136.603 730.985 135.501 730.567 134.402 730.161C133.89 729.963 129.353 728.066 132.196 729.316C127.933 727.449 123.797 725.233 119.845 722.79C117.86 721.58 115.967 720.258 114.089 718.897C110.963 716.648 116.185 720.632 113.188 718.224C111.969 717.26 110.81 716.246 109.671 715.216C106.204 712.115 103.056 708.658 100.132 705.032C102.131 707.516 99.7342 704.432 99.4766 704.092C98.7906 703.126 98.1443 702.126 97.5014 701.139C95.9714 698.783 94.6294 696.311 93.3299 693.815C92.7813 692.724 92.2747 691.608 91.7716 690.505C90.0579 686.782 92.7489 693.161 91.246 689.316C90.8578 688.283 90.5784 687.202 90.3009 686.128C90.022 684.956 89.8339 683.76 89.6459 682.563C89.2538 680.015 90.0453 686.265 89.7784 683.638C89.69 682.734 89.6494 681.826 89.6087 680.919C89.4421 677.93 89.5383 674.927 89.7114 671.94C89.796 670.298 89.9544 668.662 90.116 667.036C90.2532 665.88 91.141 659.468 90.5164 663.615C91.7532 655.555 93.6456 647.593 95.8328 639.74C98.2654 630.961 101.219 622.322 104.471 613.807C105.28 611.685 106.116 609.578 106.977 607.467C107.405 606.405 107.859 605.348 108.29 604.297C109.774 600.757 107.195 606.81 108.732 603.289C110.724 598.712 112.848 594.178 115.058 589.692C119.256 581.182 123.895 572.875 128.918 564.833C131.251 561.107 133.702 557.465 136.243 553.888C137.468 552.156 138.747 550.445 140.031 548.756C137.95 551.489 140.085 548.686 140.452 548.228C141.314 547.156 142.181 546.106 143.072 545.05C148.188 538.965 153.797 533.285 160.028 528.325C162.479 526.368 157.484 530.204 159.994 528.38C160.664 527.878 161.385 527.387 162.086 526.91C163.469 525.977 164.893 525.111 166.328 524.288C167.721 523.487 169.158 522.765 170.606 522.087C171.468 521.67 174.175 520.611 170.043 522.254C170.988 521.874 171.948 521.559 172.909 521.243C174.319 520.79 175.758 520.452 177.206 520.146C177.918 519.996 178.642 519.887 179.365 519.78C174.931 520.438 177.555 519.998 178.582 519.939C180.011 519.841 181.45 519.877 182.878 519.961C183.592 520.005 184.319 520.098 185.044 520.184C180.537 519.626 184.056 520.11 185.088 520.352C186.535 520.703 187.946 521.189 189.344 521.722C185.124 520.118 190.032 522.133 191.055 522.718C192.525 523.528 193.906 524.463 195.249 525.44C197.775 527.244 192.801 523.469 195.257 525.472C196.175 526.209 197.01 527.001 197.827 527.819C198.412 528.392 198.982 529.005 199.531 529.631C201.48 531.824 197.63 526.964 199.325 529.302C200.176 530.531 200.927 531.843 201.593 533.199C202.846 535.704 200.368 529.868 201.31 532.478C201.559 533.162 201.74 533.861 201.941 534.545C202.119 535.235 202.255 535.949 202.388 536.65C202.835 539.036 202.132 532.845 202.32 536.576C202.41 538.047 202.33 539.518 202.2 540.987C201.953 543.78 202.773 537.67 202.285 540.469C202.144 541.239 201.974 541.985 201.783 542.749C201.413 544.315 200.912 545.848 200.361 547.373C200.082 548.169 199.772 548.939 199.462 549.709C201.014 545.868 199.42 549.64 199.042 550.428C197.407 553.761 195.439 556.927 193.349 560.002C192.247 561.645 191.06 563.242 189.871 564.827C192.001 562.004 189.863 564.798 189.478 565.28C188.597 566.369 187.684 567.431 186.77 568.492C180.677 575.578 173.914 582.043 166.875 588.194C163.335 591.282 159.694 594.258 155.988 597.173C155.663 597.417 152.551 599.816 155.063 597.911C154.111 598.631 153.155 599.343 152.197 600.043C149.981 601.69 147.754 603.294 145.497 604.874C137.702 610.348 129.664 615.444 121.414 620.189C114.177 624.354 106.76 628.193 99.1191 631.545C98.3142 631.901 97.4839 632.25 96.6761 632.594C93.8123 633.798 99.7954 631.349 96.9344 632.47C95.462 633.055 93.9524 633.59 92.4635 634.112C89.6582 635.074 86.814 635.885 83.9183 636.497C73.8463 638.599 62.5386 639.016 51.3024 638.302C49.8976 638.212 48.505 638.075 47.1118 637.936C47.0611 637.927 42.5743 637.353 45.2206 637.746C42.5971 637.347 40.0112 636.814 37.4346 636.222C34.9629 635.661 32.5004 634.948 30.0954 634.176C28.9086 633.804 27.7357 633.392 26.5833 632.966C26.0776 632.791 21.4552 630.848 24.1652 632.049C19.8686 630.148 15.7713 627.798 11.8716 625.182C10.9076 624.547 9.98144 623.87 9.0547 623.192C5.95411 620.948 11.1513 624.927 8.22466 622.513C6.18991 620.829 4.23878 619.001 2.37331 617.128C0.768829 615.516 -0.715651 613.804 -2.17986 612.077C-2.49173 611.715 -4.82086 608.705 -2.83402 611.329C-3.5292 610.421 -4.18425 609.481 -4.81361 608.546C-7.69481 604.432 -10.1195 600.021 -12.2798 595.507C-12.7724 594.446 -13.2446 593.369 -13.7174 592.29C-15.3103 588.659 -12.6776 595 -14.0969 591.291C-14.9704 589.036 -15.7078 586.747 -16.4247 584.443C-18.016 579.318 -19.1581 574.055 -20.0877 568.771C-20.2927 567.509 -20.4714 566.255 -20.6508 564.998C-21.2497 560.806 -20.3913 567.784 -20.8341 563.539C-21.1178 560.942 -21.2851 558.326 -21.4272 555.713C-21.7457 549.887 -21.6562 544.045 -21.3685 538.22C-20.8317 527.826 -19.9104 521.452 -17.8489 511.706C-16.4576 505.087 -14.5798 498.568 -12.586 492.123C-10.048 483.94 -7.13682 475.888 -4.03366 467.921C-3.21372 465.843 -2.36578 463.779 -1.51783 461.715C-1.08426 460.673 -0.650054 459.634 -0.215905 458.594C-1.44526 461.527 0.0440787 458.006 0.231629 457.607C2.24025 453.001 4.37957 448.432 6.60576 443.917C10.8943 435.192 15.6035 426.688 20.7998 418.475C23.2073 414.662 25.7612 410.947 28.4306 407.304C29.0755 406.423 29.746 405.548 30.4165 404.673C28.3852 407.316 30.6231 404.44 30.9552 404.037C32.4958 402.122 34.1217 400.254 35.7808 398.421C38.473 395.428 41.3794 392.608 44.3776 389.955C45.1085 389.314 45.8702 388.698 46.6094 388.089C49.1667 385.981 44.1425 389.89 46.7864 387.929C48.4948 386.663 50.2787 385.5 52.1017 384.395C53.6341 383.479 55.1969 382.681 56.7705 381.924C57.5899 381.531 60.4701 380.391 56.535 381.951C57.3284 381.644 58.13 381.37 58.9339 381.104C60.5195 380.581 62.1385 380.188 63.7734 379.855C64.6736 379.681 67.6576 379.318 63.3745 379.813C64.4806 379.685 65.5862 379.649 66.6919 379.613C68.3552 379.579 70.0346 379.7 71.6826 379.887C67.3903 379.409 72.9714 380.279 74.094 380.59C75.1115 380.869 80.4035 383.059 76.8605 381.447C78.9727 382.399 80.9687 383.557 82.9105 384.787C83.8044 385.339 84.6662 385.954 85.5253 386.558C88.5142 388.652 83.3364 384.748 86.2717 387.102C88.1149 388.607 89.8442 390.234 91.5583 391.896C93.1803 393.482 94.662 395.182 96.1117 396.947C93.9721 394.295 96.1019 397.097 96.4234 397.59C97.2047 398.737 97.88 399.943 98.5326 401.155C99.0296 402.046 99.4379 402.97 99.872 403.899C98.3034 400.456 99.6918 403.483 99.9548 404.22C100.607 406.088 101.084 408.025 101.487 409.958C101.691 410.937 101.824 411.92 101.98 412.899C101.406 409.085 101.865 412.454 101.918 413.22C102.043 415.578 101.977 417.949 101.809 420.302C101.738 421.338 101.616 422.367 101.494 423.393C101.921 419.888 101.448 423.405 101.341 424.021C100.943 426.139 100.418 428.233 99.8395 430.308C99.2539 432.449 98.5361 434.548 97.7675 436.637C97.3899 437.708 96.9615 438.77 96.553 439.815C95.954 441.248 95.951 441.237 96.5703 439.789C96.2434 440.493 95.9177 441.202 95.5914 441.909C91.2637 451.232 85.6067 459.913 79.4918 468.135C79.3831 468.277 76.804 471.614 78.4975 469.445C77.6955 470.468 76.8647 471.475 76.0569 472.475C74.4191 474.484 72.7016 476.464 71.0019 478.421C67.2756 482.664 63.3414 486.76 59.3284 490.737C51.8861 498.138 43.9039 505.043 35.5798 511.47C38.0442 509.565 34.904 511.949 34.599 512.176C33.6636 512.87 32.6994 513.547 31.7611 514.23C29.9193 515.543 28.0442 516.822 26.1399 518.081C22.3581 520.609 18.4583 522.961 14.4719 525.167C11.2717 526.944 7.95647 528.558 4.59478 529.992C10.9035 527.301 -2.44004 532.781 1.57527 531.156C-1.41031 532.358 -4.44091 533.479 -7.48266 534.557C-17.4537 538.081 -27.7072 540.795 -38.1428 542.616C-40.4386 543.017 -42.7541 543.341 -45.0774 543.635C-41.7693 543.213 -48.2791 543.907 -49.3252 543.986C-54.0322 544.341 -58.7404 544.41 -63.429 544.274C-67.5541 544.161 -71.6713 543.797 -75.7591 543.266C-79.1725 542.813 -72.8016 543.738 -76.1947 543.175C-77.1567 543.017 -78.1496 542.832 -79.1175 542.651C-81.3383 542.216 -83.5586 541.69 -85.764 541.128C-89.4259 540.182 -93.0539 538.992 -96.5964 537.664C-97.4806 537.337 -98.348 536.983 -99.192 536.624C-102.22 535.412 -96.4253 537.857 -99.3838 536.538C-101.331 535.66 -103.253 534.696 -105.135 533.697C-108.337 532 -111.446 530.097 -114.441 528.074C-115.938 527.067 -117.377 526 -118.844 524.919C-115.594 527.364 -120.743 523.292 -121.62 522.523C-124.312 520.172 -126.878 517.654 -129.324 515.036C-130.559 513.725 -131.735 512.365 -132.911 511.004C-133.477 510.313 -134.047 509.61 -134.616 508.907C-137.075 505.863 -133.77 510.117 -135.222 508.157C-139.76 502.039 -143.628 495.42 -146.951 488.567C-147.772 486.89 -148.526 485.193 -149.259 483.481C-149.593 482.751 -150.799 479.68 -149.298 483.424C-149.668 482.558 -149.995 481.666 -150.319 480.788C-151.776 476.932 -153.012 472.993 -154.112 469.02C-155.171 465.298 -156.003 461.517 -156.767 457.719C-157.141 455.8 -157.471 453.871 -157.777 451.935C-157.933 450.956 -158.064 449.982 -158.197 448.997C-158.752 444.975 -158.077 450.211 -158.356 447.726C-159.262 439.346 -159.439 430.878 -159.095 422.459C-158.932 418.307 -158.571 414.172 -158.111 410.046C-158.006 409.045 -157.105 402.781 -157.634 406.266C-157.272 403.819 -156.812 401.381 -156.35 398.951C-154.616 390.094 -152.17 381.367 -149.209 372.85C-148.463 370.768 -147.689 368.699 -146.889 366.638C-146.48 365.593 -146.066 364.568 -145.653 363.544C-145.476 363.103 -143.989 359.664 -145.301 362.652C-143.336 358.159 -141.179 353.754 -138.881 349.424C-134.358 340.855 -129.131 332.667 -123.396 324.85C-122.699 323.888 -121.974 322.943 -121.252 321.987C-123.098 324.41 -120.664 321.259 -120.442 320.996C-118.943 319.105 -117.383 317.264 -115.82 315.435C-112.357 311.393 -108.704 307.52 -104.926 303.761C-96.4661 295.328 -91.5312 291.541 -81.6093 285.576C-77.391 283.049 -72.9794 280.801 -68.4874 278.77C-68.0523 278.578 -64.3725 277.062 -67.5345 278.331C-66.4594 277.896 -65.3509 277.496 -64.2652 277.102C-61.806 276.208 -59.3087 275.462 -56.7925 274.789C-54.7302 274.235 -52.6605 273.802 -50.5769 273.424C-49.862 273.284 -46.3467 272.82 -50.2049 273.27C-49.2405 273.157 -48.2618 273.098 -47.2863 273.028C-45.429 272.9 -43.5563 272.925 -41.6922 273.011C-40.8085 273.054 -39.9114 273.149 -39.0363 273.253C-43.1071 272.788 -39.2438 273.295 -38.3388 273.514C-37.5586 273.719 -36.7672 273.968 -35.9956 274.234C-33.1923 275.14 -38.8518 272.842 -36.2548 274.075C-35.1488 274.604 -31.0122 277.667 -34.4681 274.893C-33.494 275.661 -30.258 279.647 -32.8999 276.084C-32.0481 277.223 -29.6634 282.698 -31.1929 278.656C-30.5195 280.417 -30.113 282.271 -29.7805 284.12C-29.1607 287.549 -30.0311 280.993 -29.748 284.62C-29.6755 285.745 -29.6508 286.872 -29.6518 287.993C-29.6152 294.604 -30.2075 296.626 -31.886 303.353C-32.7079 306.643 -33.7384 309.875 -34.8 313.082C-35.3323 314.679 -35.9183 316.257 -36.5328 317.817C-35.5915 315.458 -37.3492 319.534 -37.3667 319.561C-39.9177 324.975 -43.0562 330.085 -46.4446 334.979C-49.0986 338.776 -51.8493 342.011 -55.9705 346.414C-60.261 351.006 -64.9332 355.246 -69.7621 359.255C-72.5336 361.566 -72.6419 361.616 -75.1083 363.419C-77.4926 365.165 -79.9465 366.83 -82.4347 368.455C-87.8409 372.013 -93.462 375.207 -99.2119 378.185C-110.347 383.957 -118.831 387.233 -131.433 390.802C-143.287 394.166 -152.893 395.727 -163.314 396.198C-182.045 397.058 -199.234 392.347 -214.421 383.476C-218.101 381.335 -221.589 378.906 -224.993 376.331C-222.282 378.382 -227.153 374.445 -227.93 373.784C-229.752 372.171 -231.526 370.467 -233.259 368.73C-236.235 365.751 -238.996 362.57 -241.637 359.29C-243.886 356.497 -239.892 361.634 -242.041 358.76C-242.671 357.915 -243.282 357.053 -243.893 356.191C-245.312 354.17 -246.648 352.093 -247.943 349.993C-250.19 346.362 -252.204 342.603 -254.11 338.792C-255.045 336.861 -255.938 334.907 -256.786 332.939C-257.056 332.365 -258.421 328.959 -257.056 332.365C-257.597 331.02 -258.113 329.683 -258.609 328.327C-261.738 319.785 -264.023 310.945 -265.632 301.998C-265.931 300.187 -266.23 298.373 -266.481 296.558C-266.597 295.83 -266.687 295.105 -266.78 294.371C-266.317 297.942 -266.79 294.238 -266.847 293.643C-267.238 289.973 -267.462 286.295 -267.615 282.61C-267.898 275.234 -267.653 267.836 -266.958 260.491C-266.803 258.652 -266.575 256.816 -266.344 254.991C-266.264 254.268 -266.165 253.528 -266.062 252.802C-266.507 256.142 -265.977 252.472 -265.893 251.954C-265.278 248.33 -264.533 244.743 -263.687 241.173C-262.005 234.082 -259.755 227.131 -257.071 220.357C-256.807 219.691 -256.543 219.023 -256.257 218.348C-257.541 221.443 -256.133 218.079 -255.919 217.593C-255.157 215.948 -254.389 214.323 -253.571 212.708C-251.979 209.49 -250.217 206.365 -248.372 203.285C-246.521 200.226 -244.523 197.265 -242.438 194.361C-242.028 193.791 -241.595 193.216 -241.159 192.651C-238.978 189.744 -242.938 194.863 -240.661 192.045C-239.564 190.665 -238.388 189.309 -237.206 187.974C-234.845 185.292 -232.324 182.763 -229.711 180.311C-228.405 179.08 -227.06 177.908 -225.687 176.749C-225.073 176.218 -220.639 172.742 -223.46 174.862C-217.601 170.43 -211.228 166.679 -204.632 163.504C-197.882 160.268 -196.036 150.907 -199.555 144.798C-203.478 137.964 -211.559 136.519 -218.286 139.749Z" fill="#F8CB5F"/>
<path d="M135.741 229.535C139.978 250.984 164.466 254.097 182.543 254.14C204.374 254.195 220.361 250.129 226.591 227.88C228.853 219.802 216.286 216.35 214.028 224.416C209.923 239.081 199.271 241.021 185.082 241.131C172.662 241.218 151.434 241.92 148.304 226.071C146.681 217.862 134.122 221.336 135.741 229.535Z" fill="#132790"/>
<path d="M266.405 183.765C263.767 172.311 262.71 143.99 280.833 145.316C295.921 146.423 292.17 174.394 291.027 184.959C290.128 193.278 303.164 193.212 304.055 184.959C306.157 165.505 306.804 129.763 278.233 132.493C251.917 135.013 249.068 166.502 253.843 187.228C255.723 195.382 268.287 191.93 266.405 183.765Z" fill="#132790"/>
</g>
<defs>
<clipPath id="clip0_2247_278">
<rect width="362" height="448" rx="48" fill="white"/>
</clipPath>
</defs>
</svg>
