<svg width="284" height="224" viewBox="0 0 284 224" fill="none" xmlns="http://www.w3.org/2000/svg">
<g>
<rect x="24" y="12" width="236" height="224" rx="24" fill="white" shape-rendering="crispEdges"/>
<path d="M107.8 41.6328C107.674 42.9945 107.163 44.2923 106.327 45.3742C105.49 46.4561 104.363 47.2774 103.077 47.742C101.79 48.2066 100.398 48.2953 99.0636 47.9977C97.7288 47.7 96.5064 47.0284 95.5394 46.0614C94.5724 45.0944 93.9007 43.872 93.6031 42.5372C93.3055 41.2024 93.3942 39.8104 93.8588 38.5242C94.3234 37.238 95.1447 36.1107 96.2266 35.2742C97.3085 34.4377 98.6062 33.9266 99.968 33.8008C99.1707 34.8794 98.7871 36.2083 98.8868 37.5459C98.9866 38.8835 99.5631 40.1408 100.512 41.0893C101.46 42.0377 102.717 42.6142 104.055 42.714C105.392 42.8137 106.721 42.4301 107.8 41.6328Z" stroke="#F8CB5F" stroke-width="1.2" stroke-linecap="round" stroke-linejoin="round"/>
<path d="M178.046 33.8008L173.6 39.6092L180.269 47.8378C183.826 47.8378 188.272 49.2899 189.606 46.3857C190.56 44.3076 187.827 44.9336 185.16 43.4815L183.381 40.5773L184.27 37.6731L180.269 36.705L178.046 33.8008Z" stroke="#F59B48" stroke-width="1.33333" stroke-linecap="round" stroke-linejoin="round"/>
<path d="M175.85 36.9512L179.9 41.9012" stroke="#F59B48" stroke-width="1.33333" stroke-linecap="round" stroke-linejoin="round"/>
<path d="M231.042 87.0016C230.941 87.0016 230.84 87.0016 230.74 87.0016C230.538 87.0016 230.336 86.8549 230.235 86.7082C230.033 85.6082 230.74 84.5816 231.547 83.9216C232.456 83.1882 233.869 82.6016 235.08 82.6016C235.383 82.6016 235.585 82.7482 235.585 82.8949C235.686 83.8482 235.282 84.9482 234.373 85.7549C233.566 86.4882 232.254 87.0016 231.042 87.0016Z" stroke="#78E9AB" stroke-width="1.2"/>
<path d="M223 94.4111C223 91.915 224.089 89.7729 226.667 88.8549C227.531 88.5473 229.202 89.0953 230.2 89.0953C231.198 89.0953 232.869 88.5473 233.733 88.8549C236.312 89.7729 237.4 91.915 237.4 94.4111C237.4 97.1 235.301 99.3781 232.402 100.158C231.708 100.344 230.968 99.8703 230.2 99.8703C229.432 99.8703 228.692 100.344 227.998 100.158C225.099 99.3781 223 97.1 223 94.4111Z" stroke="#78E9AB" stroke-width="1.2"/>
<path d="M226.4 155.43C226.537 157.075 230.256 161.601 235.836 161.601C241.415 161.601 241.99 157.075 242.4 155.43" stroke="#A3DBF5" stroke-width="1.23077" stroke-linejoin="round"/>
<path d="M232.964 155.43C233.648 157.213 236.574 160.696 241.169 158.721" stroke="#A3DBF5" stroke-width="1.23077" stroke-linejoin="round"/>
<path d="M234.195 157.487C234.879 157.35 235.836 156.746 235.836 155.43" stroke="#A3DBF5" stroke-width="1.23077" stroke-linejoin="round"/>
<path d="M226.4 155.43H232.964" stroke="#A3DBF5" stroke-width="1.23077" stroke-linecap="round" stroke-linejoin="round"/>
<path d="M235.836 155.43H242.4" stroke="#A3DBF5" stroke-width="1.23077" stroke-linecap="round" stroke-linejoin="round"/>
<path d="M226.4 155.429L229.272 151.314L232.964 155.429" stroke="#A3DBF5" stroke-width="1.23077" stroke-linecap="round" stroke-linejoin="round"/>
<path d="M229.272 151.315V147.201" stroke="#A3DBF5" stroke-width="1.23077" stroke-linecap="round" stroke-linejoin="round"/>
<path d="M235.836 155.429L238.708 151.727L242.4 155.429" stroke="#A3DBF5" stroke-width="1.23077" stroke-linecap="round" stroke-linejoin="round"/>
<path d="M238.708 151.727V147.201" stroke="#A3DBF5" stroke-width="1.23077" stroke-linecap="round" stroke-linejoin="round"/>
<path d="M186.72 208.445H176.48C175.773 208.445 175.2 209.082 175.2 209.868V216.979C175.2 217.764 175.773 218.401 176.48 218.401H186.72C187.427 218.401 188 217.764 188 216.979V209.868C188 209.082 187.427 208.445 186.72 208.445Z" stroke="#132790" stroke-width="1.2" stroke-linecap="round" stroke-linejoin="round"/>
<path d="M184.16 218.402V207.024C184.16 206.647 184.025 206.285 183.785 206.018C183.545 205.751 183.22 205.602 182.88 205.602H180.32C179.981 205.602 179.655 205.751 179.415 206.018C179.175 206.285 179.04 206.647 179.04 207.024V218.402" stroke="#132790" stroke-width="1.08" stroke-linecap="round" stroke-linejoin="round"/>
<path d="M104.368 219.201H94.3161V215.361L92.6 214.401C92.9269 213.841 93.8258 212.289 94.8064 210.561C95.2967 207.441 97.5032 204.801 101.671 204.801C105.839 204.801 107.8 208.401 107.8 210.081C107.8 211.761 107.671 212.834 106.2 214.274C105.023 215.426 104.368 215.79 104.368 219.201Z" stroke="#821494" stroke-width="1.2" stroke-linejoin="round"/>
<path d="M94.4806 218.233L93.8926 218.352L94.1313 219.528L94.7193 219.409L94.4806 218.233ZM102.213 216.604C102.453 216.376 102.463 215.996 102.236 215.755C102.008 215.515 101.628 215.504 101.387 215.732L102.213 216.604ZM94.7193 219.409C95.6504 219.22 97.0788 218.93 98.4786 218.493C99.8565 218.064 101.306 217.463 102.213 216.604L101.387 215.732C100.694 216.389 99.4768 216.925 98.1213 217.348C96.7878 217.764 95.4162 218.043 94.4806 218.233L94.7193 219.409Z" fill="#821494"/>
<path d="M41.6001 160.801L57.6001 160.801" stroke="#DA443A" stroke-width="1.2"/>
<path d="M44.509 160.801V153.271" stroke="#DA443A" stroke-width="1.2"/>
<path d="M51.782 160.801V153.271" stroke="#DA443A" stroke-width="1.2"/>
<path d="M47.4182 160.801V153.271" stroke="#DA443A" stroke-width="1.2"/>
<path d="M54.691 160.801V153.271" stroke="#DA443A" stroke-width="1.2"/>
<path d="M42.6909 153.271H56.1455V152.141L49.6 148L42.6909 152.141V153.271Z" stroke="#DA443A" stroke-width="1.2"/>
<path d="M58.843 85.545C58.4129 85.1189 57.9023 84.781 57.3403 84.5504C56.7784 84.3198 56.176 84.2012 55.5677 84.2012C54.9594 84.2012 54.357 84.3198 53.795 84.5504C53.233 84.781 52.7224 85.1189 52.2924 85.545L51.3999 86.4287L50.5074 85.545C49.6387 84.6848 48.4605 84.2016 47.2321 84.2016C46.0036 84.2016 44.8254 84.6848 43.9568 85.545C43.0881 86.4051 42.6001 87.5717 42.6001 88.7881C42.6001 90.0045 43.0881 91.1711 43.9568 92.0312L44.8493 92.9149L51.3999 99.4012L57.9505 92.9149L58.843 92.0312C59.2732 91.6054 59.6145 91.0998 59.8474 90.5433C60.0802 89.9869 60.2001 89.3904 60.2001 88.7881C60.2001 88.1857 60.0802 87.5893 59.8474 87.0328C59.6145 86.4764 59.2732 85.9708 58.843 85.545Z" stroke="#F071BD" stroke-width="1.03334" stroke-linecap="round" stroke-linejoin="round"/>
<mask id="path-27-inside-1_2494_8617" fill="white">
<path d="M188.85 78.153C190.431 76.5726 190.438 74.0006 188.771 72.5114C177.191 62.1647 162.571 55.8378 147.101 54.4793C144.875 54.2838 143.005 56.0496 142.935 58.2835L142.669 66.7456C142.598 68.9795 144.355 70.8321 146.578 71.065C157.838 72.2446 168.471 76.8458 177.039 84.2463C178.73 85.7073 181.283 85.72 182.864 84.1396L188.85 78.153Z"/>
</mask>
<path d="M188.85 78.153C190.431 76.5726 190.438 74.0006 188.771 72.5114C177.191 62.1647 162.571 55.8378 147.101 54.4793C144.875 54.2838 143.005 56.0496 142.935 58.2835L142.669 66.7456C142.598 68.9795 144.355 70.8321 146.578 71.065C157.838 72.2446 168.471 76.8458 177.039 84.2463C178.73 85.7073 181.283 85.72 182.864 84.1396L188.85 78.153Z" stroke="#EEF6F6" stroke-width="0.674473" mask="url(#path-27-inside-1_2494_8617)"/>
<mask id="path-28-inside-2_2494_8617" fill="white">
<path d="M176.122 90.8809C177.703 89.3005 177.712 86.7251 176.018 85.2674C167.713 78.1222 157.426 73.6709 146.533 72.5082C144.31 72.271 142.439 74.0407 142.369 76.2746L142.233 80.5988C142.163 82.8327 143.922 84.6803 146.139 84.9672C153.876 85.9687 161.179 89.1288 167.205 94.0836C168.932 95.5029 171.483 95.5205 173.063 93.9401L176.122 90.8809Z"/>
</mask>
<path d="M176.122 90.8809C177.703 89.3005 177.712 86.7251 176.018 85.2674C167.713 78.1222 157.426 73.6709 146.533 72.5082C144.31 72.271 142.439 74.0407 142.369 76.2746L142.233 80.5988C142.163 82.8327 143.922 84.6803 146.139 84.9672C153.876 85.9687 161.179 89.1288 167.205 94.0836C168.932 95.5029 171.483 95.5205 173.063 93.9401L176.122 90.8809Z" stroke="#EEF6F6" stroke-width="0.674473" mask="url(#path-28-inside-2_2494_8617)"/>
<path opacity="0.8" d="M166.576 100.427C168.157 98.8465 168.168 96.266 166.438 94.8511C160.611 90.0856 153.567 87.0376 146.104 86.0519C143.888 85.7592 142.015 87.534 141.945 89.768L141.907 90.9887C141.837 93.2226 143.599 95.0636 145.805 95.4223C150.903 96.2512 155.718 98.3347 159.812 101.484C161.584 102.846 164.132 102.871 165.713 101.29L166.576 100.427Z" fill="#F59B48"/>
<path opacity="0.6" d="M159.808 107.195C161.173 105.831 161.184 103.601 159.672 102.402C155.492 99.0872 150.51 96.9313 145.232 96.1531C143.323 95.8716 141.705 97.4063 141.644 99.3345C141.584 101.263 143.107 102.849 145.005 103.195C148.511 103.836 151.826 105.271 154.693 107.388C156.245 108.534 158.444 108.559 159.808 107.195Z" fill="#F59B48"/>
<path opacity="0.4" d="M155.056 111.947C156.079 110.924 156.088 109.251 154.954 108.352C151.819 105.866 148.082 104.249 144.124 103.666C142.692 103.455 141.479 104.605 141.433 106.052C141.388 107.498 142.531 108.687 143.954 108.947C146.584 109.428 149.07 110.504 151.22 112.092C152.384 112.951 154.033 112.97 155.056 111.947Z" fill="#F59B48"/>
<path d="M208.753 126.203C210.988 126.203 212.812 124.389 212.686 122.158C211.814 106.654 205.95 91.8415 195.972 79.9423C194.536 78.2298 191.965 78.156 190.336 79.686L184.164 85.4816C182.535 87.0116 182.467 89.5639 183.874 91.3004C191.002 100.096 195.267 110.868 196.092 122.16C196.255 124.389 198.052 126.203 200.287 126.203H208.753Z" fill="#78E9AB"/>
<path d="M190.753 126.203C192.988 126.203 194.816 124.389 194.649 122.16C193.829 111.235 189.703 100.814 182.822 92.2887C181.418 90.5495 178.844 90.4779 177.214 92.0078L174.061 94.9694C172.431 96.4994 172.369 99.0496 173.733 100.82C178.496 106.999 181.425 114.397 182.183 122.162C182.4 124.387 184.192 126.203 186.427 126.203H190.753Z" fill="#78E9AB"/>
<path opacity="0.8" d="M177.253 126.203C179.488 126.203 181.321 124.387 181.098 122.163C180.347 114.673 177.522 107.537 172.942 101.562C171.582 99.7888 169.003 99.7193 167.373 101.249L166.483 102.085C164.854 103.615 164.798 106.163 166.104 107.977C169.123 112.168 171.055 117.046 171.723 122.167C172.012 124.384 173.797 126.203 176.032 126.203H177.253Z" fill="#78E9AB"/>
<path opacity="0.56" d="M167.682 126.203C169.611 126.203 171.196 124.634 170.974 122.718C170.362 117.418 168.364 112.371 165.182 108.088C164.032 106.54 161.802 106.481 160.396 107.801C158.99 109.122 158.946 111.32 160.042 112.908C162.069 115.84 163.398 119.198 163.928 122.723C164.216 124.631 165.753 126.203 167.682 126.203Z" fill="#78E9AB"/>
<path opacity="0.4" d="M160.961 126.203C162.408 126.203 163.597 125.026 163.431 123.589C162.972 119.614 161.473 115.829 159.087 112.617C158.224 111.456 156.552 111.411 155.497 112.402C154.442 113.392 154.409 115.041 155.232 116.232C156.751 118.431 157.749 120.949 158.146 123.593C158.362 125.024 159.515 126.203 160.961 126.203Z" fill="#78E9AB"/>
<mask id="path-37-inside-3_2494_8617" fill="white">
<path d="M92.7499 78.153C91.1695 76.5726 88.5975 76.5655 87.1083 78.2322C76.7616 89.812 70.4347 104.433 69.0762 119.902C68.8807 122.128 70.6465 123.998 72.8804 124.069L81.3426 124.335C83.5765 124.405 85.429 122.648 85.6619 120.425C86.8415 109.165 91.4428 98.5323 98.8433 89.9646C100.304 88.2732 100.317 85.72 98.7365 84.1396L92.7499 78.153Z"/>
</mask>
<path d="M92.7499 78.153C91.1695 76.5726 88.5975 76.5655 87.1083 78.2322C76.7616 89.812 70.4347 104.433 69.0762 119.902C68.8807 122.128 70.6465 123.998 72.8804 124.069L81.3426 124.335C83.5765 124.405 85.429 122.648 85.6619 120.425C86.8415 109.165 91.4428 98.5323 98.8433 89.9646C100.304 88.2732 100.317 85.72 98.7365 84.1396L92.7499 78.153Z" stroke="#EEF6F6" stroke-width="0.674473" mask="url(#path-37-inside-3_2494_8617)"/>
<mask id="path-38-inside-4_2494_8617" fill="white">
<path d="M105.478 90.8809C103.897 89.3005 101.322 89.2913 99.8644 90.9855C92.7192 99.2903 88.2678 109.577 87.1051 120.47C86.8679 122.693 88.6376 124.564 90.8715 124.634L95.1957 124.77C97.4296 124.84 99.2772 123.081 99.5641 120.865C100.566 113.127 103.726 105.825 108.68 99.7979C110.1 98.0714 110.117 95.5205 108.537 93.9401L105.478 90.8809Z"/>
</mask>
<path d="M105.478 90.8809C103.897 89.3005 101.322 89.2913 99.8644 90.9855C92.7192 99.2903 88.2678 109.577 87.1051 120.47C86.8679 122.693 88.6376 124.564 90.8715 124.634L95.1957 124.77C97.4296 124.84 99.2772 123.081 99.5641 120.865C100.566 113.127 103.726 105.825 108.68 99.7979C110.1 98.0714 110.117 95.5205 108.537 93.9401L105.478 90.8809Z" stroke="#EEF6F6" stroke-width="0.674473" mask="url(#path-38-inside-4_2494_8617)"/>
<path opacity="0.8" d="M115.024 100.427C113.443 98.8465 110.863 98.8349 109.448 100.565C104.683 106.392 101.634 113.436 100.649 120.899C100.356 123.115 102.131 124.988 104.365 125.058L105.586 125.096C107.819 125.167 109.661 123.404 110.019 121.198C110.848 116.1 112.932 111.285 116.081 107.191C117.443 105.419 117.468 102.871 115.887 101.29L115.024 100.427Z" fill="#F071BD"/>
<path opacity="0.6" d="M121.792 107.195C120.428 105.831 118.197 105.82 116.999 107.331C113.684 111.512 111.528 116.494 110.75 121.771C110.469 123.68 112.003 125.298 113.931 125.359C115.86 125.419 117.445 123.896 117.792 121.998C118.433 118.492 119.868 115.177 121.985 112.31C123.131 110.758 123.156 108.559 121.792 107.195Z" fill="#F071BD"/>
<path opacity="0.4" d="M126.544 111.947C125.521 110.924 123.848 110.915 122.949 112.049C120.463 115.184 118.846 118.921 118.263 122.879C118.051 124.311 119.202 125.524 120.649 125.57C122.095 125.615 123.284 124.473 123.544 123.049C124.025 120.42 125.101 117.934 126.689 115.783C127.548 114.619 127.567 112.97 126.544 111.947Z" fill="#F071BD"/>
<mask id="path-42-inside-5_2494_8617" fill="white">
<path d="M140.8 58.25C140.8 56.015 138.986 54.1913 136.755 54.3168C121.25 55.1887 106.438 61.0532 94.5393 71.0311C92.8267 72.4672 92.7529 75.0382 94.2829 76.6674L100.079 82.8391C101.608 84.4683 104.161 84.5359 105.897 83.1288C114.693 76.001 125.465 71.736 136.757 70.9107C138.986 70.7477 140.8 68.9513 140.8 66.7163V58.25Z"/>
</mask>
<path d="M140.8 58.25C140.8 56.015 138.986 54.1913 136.755 54.3168C121.25 55.1887 106.438 61.0532 94.5393 71.0311C92.8267 72.4672 92.7529 75.0382 94.2829 76.6674L100.079 82.8391C101.608 84.4683 104.161 84.5359 105.897 83.1288C114.693 76.001 125.465 71.736 136.757 70.9107C138.986 70.7477 140.8 68.9513 140.8 66.7163V58.25Z" stroke="#EEF6F6" stroke-width="0.674473" mask="url(#path-42-inside-5_2494_8617)"/>
<path d="M140.8 76.25C140.8 74.015 138.985 72.1873 136.757 72.3546C125.832 73.1746 115.411 77.3006 106.886 84.1814C105.146 85.5852 105.075 88.1596 106.605 89.7888L109.566 92.9426C111.096 94.5718 113.647 94.6344 115.417 93.27C121.596 88.507 128.994 85.5778 136.759 84.8198C138.984 84.6027 140.8 82.8113 140.8 80.5763V76.25Z" fill="#F8CB5F"/>
<path opacity="0.8" d="M140.8 89.75C140.8 87.515 138.984 85.6821 136.76 85.9051C129.269 86.6559 122.134 89.4812 116.159 94.0613C114.386 95.4211 114.316 98.0007 115.846 99.6299L116.682 100.52C118.212 102.149 120.76 102.205 122.574 100.899C126.765 97.8798 131.643 95.9486 136.764 95.2803C138.981 94.9911 140.8 93.2063 140.8 90.9713V89.75Z" fill="#F8CB5F"/>
<path opacity="0.6" d="M140.8 99.3212C140.8 97.3921 139.231 95.8073 137.314 96.0287C132.015 96.6408 126.967 98.6391 122.685 101.821C121.137 102.971 121.078 105.201 122.398 106.607C123.719 108.013 125.917 108.057 127.505 106.961C130.437 104.935 133.795 103.605 137.32 103.075C139.227 102.788 140.8 101.25 140.8 99.3212Z" fill="#F8CB5F"/>
<path opacity="0.4" d="M140.8 106.042C140.8 104.595 139.623 103.406 138.186 103.572C134.211 104.031 130.426 105.53 127.214 107.916C126.052 108.779 126.008 110.451 126.999 111.506C127.989 112.561 129.638 112.594 130.828 111.771C133.028 110.252 135.546 109.255 138.19 108.857C139.621 108.642 140.8 107.489 140.8 106.042Z" fill="#F8CB5F"/>
<mask id="path-47-inside-6_2494_8617" fill="white">
<path d="M92.7499 174.253C91.1695 175.834 91.1625 178.406 92.8291 179.895C104.409 190.242 119.029 196.568 134.499 197.927C136.725 198.122 138.595 196.357 138.666 194.123L138.932 185.661C139.002 183.427 137.245 181.574 135.022 181.341C123.762 180.162 113.129 175.56 104.562 168.16C102.87 166.699 100.317 166.686 98.7365 168.267L92.7499 174.253Z"/>
</mask>
<path d="M92.7499 174.253C91.1695 175.834 91.1625 178.406 92.8291 179.895C104.409 190.242 119.029 196.568 134.499 197.927C136.725 198.122 138.595 196.357 138.666 194.123L138.932 185.661C139.002 183.427 137.245 181.574 135.022 181.341C123.762 180.162 113.129 175.56 104.562 168.16C102.87 166.699 100.317 166.686 98.7365 168.267L92.7499 174.253Z" stroke="#EEF6F6" stroke-width="0.674473" mask="url(#path-47-inside-6_2494_8617)"/>
<mask id="path-48-inside-7_2494_8617" fill="white">
<path d="M105.478 161.525C103.897 163.106 103.888 165.681 105.582 167.139C113.887 174.284 124.174 178.735 135.067 179.898C137.29 180.135 139.161 178.366 139.231 176.132L139.367 171.807C139.437 169.574 137.678 167.726 135.462 167.439C127.724 166.438 120.421 163.277 114.395 158.323C112.668 156.903 110.117 156.886 108.537 158.466L105.478 161.525Z"/>
</mask>
<path d="M105.478 161.525C103.897 163.106 103.888 165.681 105.582 167.139C113.887 174.284 124.174 178.735 135.067 179.898C137.29 180.135 139.161 178.366 139.231 176.132L139.367 171.807C139.437 169.574 137.678 167.726 135.462 167.439C127.724 166.438 120.421 163.277 114.395 158.323C112.668 156.903 110.117 156.886 108.537 158.466L105.478 161.525Z" stroke="#EEF6F6" stroke-width="0.674473" mask="url(#path-48-inside-7_2494_8617)"/>
<mask id="path-49-inside-8_2494_8617" fill="white">
<path d="M115.024 151.979C113.443 153.56 113.432 156.14 115.162 157.555C120.989 162.321 128.033 165.369 135.496 166.354C137.712 166.647 139.585 164.872 139.655 162.638L139.693 161.418C139.764 159.184 138.001 157.343 135.795 156.984C130.697 156.155 125.882 154.072 121.788 150.923C120.016 149.56 117.468 149.535 115.887 151.116L115.024 151.979Z"/>
</mask>
<path d="M115.024 151.979C113.443 153.56 113.432 156.14 115.162 157.555C120.989 162.321 128.033 165.369 135.496 166.354C137.712 166.647 139.585 164.872 139.655 162.638L139.693 161.418C139.764 159.184 138.001 157.343 135.795 156.984C130.697 156.155 125.882 154.072 121.788 150.923C120.016 149.56 117.468 149.535 115.887 151.116L115.024 151.979Z" stroke="#EEF6F6" stroke-width="0.674473" mask="url(#path-49-inside-8_2494_8617)"/>
<path opacity="0.6" d="M121.792 145.211C120.428 146.576 120.417 148.806 121.928 150.004C126.108 153.319 131.09 155.475 136.368 156.253C138.277 156.535 139.895 155 139.956 153.072C140.016 151.143 138.493 149.558 136.595 149.211C133.089 148.57 129.774 147.136 126.907 145.018C125.355 143.872 123.156 143.847 121.792 145.211Z" fill="#821494"/>
<path opacity="0.4" d="M126.544 140.459C125.521 141.483 125.512 143.155 126.646 144.054C129.781 146.54 133.518 148.157 137.476 148.741C138.908 148.952 140.121 147.801 140.167 146.355C140.212 144.908 139.07 143.719 137.646 143.459C135.017 142.978 132.531 141.902 130.38 140.315C129.216 139.455 127.567 139.436 126.544 140.459Z" fill="#821494"/>
<mask id="path-52-inside-9_2494_8617" fill="white">
<path d="M72.8469 126.203C70.6119 126.203 68.7882 128.017 68.9137 130.248C69.7856 145.753 75.6502 160.565 85.628 172.464C87.0641 174.176 89.6351 174.25 91.2643 172.72L97.436 166.925C99.0653 165.395 99.1328 162.842 97.7257 161.106C90.5979 152.31 86.3329 141.538 85.5076 130.247C85.3447 128.017 83.5482 126.203 81.3132 126.203H72.8469Z"/>
</mask>
<path d="M72.8469 126.203C70.6119 126.203 68.7882 128.017 68.9137 130.248C69.7856 145.753 75.6502 160.565 85.628 172.464C87.0641 174.176 89.6351 174.25 91.2643 172.72L97.436 166.925C99.0653 165.395 99.1328 162.842 97.7257 161.106C90.5979 152.31 86.3329 141.538 85.5076 130.247C85.3447 128.017 83.5482 126.203 81.3132 126.203H72.8469Z" stroke="#EEF6F6" stroke-width="0.674473" mask="url(#path-52-inside-9_2494_8617)"/>
<path d="M90.8469 126.203C88.6119 126.203 86.7843 128.018 86.9515 130.246C87.7715 141.171 91.8975 151.592 98.7783 160.118C100.182 161.857 102.757 161.928 104.386 160.398L107.54 157.437C109.169 155.907 109.231 153.357 107.867 151.586C103.104 145.407 100.175 138.009 99.4167 130.244C99.1996 128.019 97.4082 126.203 95.1732 126.203H90.8469Z" fill="#DA443A"/>
<path opacity="0.8" d="M104.347 126.203C102.112 126.203 100.279 128.02 100.502 130.243C101.253 137.734 104.078 144.87 108.658 150.844C110.018 152.617 112.598 152.687 114.227 151.157L115.117 150.321C116.746 148.791 116.802 146.243 115.496 144.429C112.477 140.238 110.546 135.361 109.877 130.239C109.588 128.023 107.803 126.203 105.568 126.203H104.347Z" fill="#DA443A"/>
<path opacity="0.8" d="M113.918 126.203C111.989 126.203 110.404 127.772 110.626 129.689C111.238 134.988 113.236 140.036 116.418 144.318C117.568 145.867 119.798 145.926 121.204 144.605C122.61 143.284 122.654 141.086 121.558 139.499C119.532 136.566 118.202 133.208 117.672 129.683C117.385 127.776 115.847 126.203 113.918 126.203Z" fill="#DA443A"/>
<path opacity="0.6" d="M120.639 126.203C119.192 126.203 118.003 127.38 118.169 128.817C118.628 132.792 120.127 136.578 122.513 139.789C123.376 140.951 125.048 140.995 126.103 140.005C127.158 139.014 127.191 137.365 126.368 136.175C124.849 133.975 123.851 131.457 123.454 128.813C123.238 127.383 122.086 126.203 120.639 126.203Z" fill="#DA443A"/>
<mask id="path-57-inside-10_2494_8617" fill="white">
<path d="M188.85 174.253C190.431 175.834 193.003 175.841 194.492 174.174C204.838 162.594 211.165 147.974 212.524 132.504C212.719 130.278 210.954 128.408 208.72 128.338L200.258 128.072C198.024 128.001 196.171 129.758 195.938 131.981C194.759 143.241 190.157 153.874 182.757 162.442C181.296 164.133 181.283 166.686 182.864 168.267L188.85 174.253Z"/>
</mask>
<path d="M188.85 174.253C190.431 175.834 193.003 175.841 194.492 174.174C204.838 162.594 211.165 147.974 212.524 132.504C212.719 130.278 210.954 128.408 208.72 128.338L200.258 128.072C198.024 128.001 196.171 129.758 195.938 131.981C194.759 143.241 190.157 153.874 182.757 162.442C181.296 164.133 181.283 166.686 182.864 168.267L188.85 174.253Z" stroke="#EEF6F6" stroke-width="0.674473" mask="url(#path-57-inside-10_2494_8617)"/>
<mask id="path-58-inside-11_2494_8617" fill="white">
<path d="M176.122 161.525C177.703 163.106 180.278 163.115 181.736 161.421C188.881 153.116 193.332 142.829 194.495 131.936C194.732 129.713 192.962 127.842 190.729 127.772L186.404 127.636C184.17 127.566 182.323 129.325 182.036 131.542C181.035 139.279 177.874 146.582 172.92 152.608C171.5 154.335 171.483 156.886 173.063 158.466L176.122 161.525Z"/>
</mask>
<path d="M176.122 161.525C177.703 163.106 180.278 163.115 181.736 161.421C188.881 153.116 193.332 142.829 194.495 131.936C194.732 129.713 192.962 127.842 190.729 127.772L186.404 127.636C184.17 127.566 182.323 129.325 182.036 131.542C181.035 139.279 177.874 146.582 172.92 152.608C171.5 154.335 171.483 156.886 173.063 158.466L176.122 161.525Z" stroke="#EEF6F6" stroke-width="0.674473" mask="url(#path-58-inside-11_2494_8617)"/>
<path opacity="0.8" d="M166.576 151.979C168.157 153.56 170.737 153.571 172.152 151.841C176.918 146.014 179.966 138.97 180.951 131.507C181.244 129.291 179.469 127.418 177.235 127.348L176.015 127.31C173.781 127.24 171.94 129.002 171.581 131.208C170.752 136.306 168.669 141.121 165.52 145.215C164.157 146.987 164.132 149.535 165.713 151.116L166.576 151.979Z" fill="#A3DBF5"/>
<path opacity="0.6" d="M159.808 145.211C161.173 146.576 163.403 146.587 164.601 145.075C167.916 140.895 170.072 135.913 170.85 130.635C171.132 128.726 169.597 127.108 167.669 127.048C165.74 126.987 164.155 128.51 163.808 130.408C163.167 133.914 161.733 137.229 159.615 140.096C158.469 141.648 158.444 143.847 159.808 145.211Z" fill="#A3DBF5"/>
<path opacity="0.4" d="M155.056 140.459C156.079 141.483 157.752 141.491 158.651 140.357C161.137 137.222 162.754 133.485 163.338 129.527C163.549 128.095 162.398 126.882 160.952 126.836C159.505 126.791 158.316 127.934 158.056 129.357C157.575 131.987 156.499 134.473 154.911 136.623C154.052 137.787 154.033 139.436 155.056 140.459Z" fill="#A3DBF5"/>
<path d="M140.8 194.156C140.8 196.391 142.614 198.215 144.845 198.089C160.35 197.218 175.162 191.353 187.061 181.375C188.773 179.939 188.847 177.368 187.317 175.739L181.522 169.567C179.992 167.938 177.439 167.87 175.703 169.277C166.907 176.405 156.135 180.67 144.843 181.496C142.614 181.659 140.8 183.455 140.8 185.69V194.156Z" fill="#132790"/>
<path d="M140.8 176.156C140.8 178.391 142.615 180.219 144.843 180.052C155.768 179.232 166.189 175.106 174.714 168.225C176.454 166.821 176.525 164.247 174.995 162.617L172.034 159.464C170.504 157.834 167.954 157.772 166.183 159.136C160.004 163.899 152.606 166.828 144.841 167.586C142.616 167.804 140.8 169.595 140.8 171.83V176.156Z" fill="#132790"/>
<path opacity="0.8" d="M140.8 162.656C140.8 164.891 142.617 166.724 144.84 166.501C152.331 165.75 159.467 162.925 165.441 158.345C167.214 156.985 167.284 154.406 165.754 152.776L164.918 151.886C163.388 150.257 160.84 150.201 159.026 151.508C154.835 154.526 149.958 156.458 144.836 157.126C142.62 157.415 140.8 159.2 140.8 161.435V162.656Z" fill="#132790"/>
<path opacity="0.6" d="M140.8 153.085C140.8 155.014 142.369 156.599 144.286 156.378C149.585 155.765 154.633 153.767 158.915 150.585C160.464 149.435 160.523 147.205 159.202 145.799C157.881 144.393 155.683 144.349 154.096 145.445C151.163 147.472 147.805 148.801 144.28 149.332C142.373 149.619 140.8 151.156 140.8 153.085Z" fill="#132790"/>
<path opacity="0.4" d="M140.8 146.365C140.8 147.811 141.977 149 143.414 148.834C147.389 148.375 151.175 146.876 154.386 144.49C155.548 143.627 155.592 141.955 154.601 140.9C153.611 139.845 151.962 139.812 150.772 140.635C148.572 142.154 146.054 143.152 143.41 143.549C141.979 143.765 140.8 144.918 140.8 146.365Z" fill="#132790"/>
</g>

</svg>
