<svg width="142" height="46" viewBox="0 0 142 46" fill="none" xmlns="http://www.w3.org/2000/svg">
<path d="M22.464 0.135998V7.944H15.872V44.936H6.912V7.944H0.384V0.135998H22.464ZM40.92 0.199997H49.944V45H40.92V25.928H36.312V45H27.352V0.199997H36.312V18.12H40.92V0.199997ZM55.238 0.199997H64.198V45H55.238V0.199997ZM69.563 0.199997H80.635C88.059 0.199997 92.347 4.232 92.347 12.168V12.488C92.347 19.656 88.891 23.368 85.755 23.688V24.328C88.891 24.648 92.347 28.744 92.347 35.272V35.912C92.347 39.752 92.411 42.504 92.987 45H84.027C83.451 42.312 83.387 39.304 83.387 35.848V31.24C83.387 28.936 82.491 27.912 80.571 27.912H78.523V45.064H69.563V0.199997ZM78.523 8.008V20.104H80.571C82.491 20.104 83.387 19.016 83.387 16.648V11.4C83.387 9.096 82.491 8.008 80.571 8.008H78.523ZM96.37 0.199997H105.33L108.018 35.144H108.594L111.218 0.199997H120.178L115.186 45H101.17L96.37 0.199997ZM141.158 7.944H133.798V17.608H141.03V25.416H133.798V37.192H141.35V45H124.838V0.135998H141.158V7.944Z" fill="white"/>
</svg>
