<svg width="72" height="24" viewBox="0 0 72 24" fill="none" xmlns="http://www.w3.org/2000/svg">
<path d="M11.5758 0.567999V4.472H8.27975V22.968H3.79975V4.472H0.53575V0.567999H11.5758ZM20.8038 0.599998H25.3158V23H20.8038V13.464H18.4998V23H14.0198V0.599998H18.4998V9.56H20.8038V0.599998ZM27.9628 0.599998H33.4988C37.2108 0.599998 39.3548 2.616 39.3548 6.584V6.744C39.3548 10.328 37.6268 12.184 36.0588 12.344V12.664C37.6268 12.824 39.3548 14.872 39.3548 18.136V18.456C39.3548 20.376 39.3868 21.752 39.6748 23H35.1948C34.9068 21.656 34.8748 20.152 34.8748 18.424V16.12C34.8748 14.968 34.4268 14.456 33.4668 14.456H32.4428V23.032H27.9628V0.599998ZM32.4428 4.504V10.552H33.4668C34.4268 10.552 34.8748 10.008 34.8748 8.824V6.2C34.8748 5.048 34.4268 4.504 33.4668 4.504H32.4428ZM42.0627 0.599998H46.5427V23H42.0627V0.599998ZM48.8413 0.599998H53.3213L54.6653 18.072H54.9533L56.2653 0.599998H60.7453L58.2493 23H51.2413L48.8413 0.599998ZM71.2353 4.472H67.5553V9.304H71.1713V13.208H67.5553V19.096H71.3313V23H63.0753V0.567999H71.2353V4.472Z" fill="#132790"/>
</svg>
