<svg width="114" height="100" viewBox="0 0 114 100" fill="none" xmlns="http://www.w3.org/2000/svg">
<path d="M114 39.3464C114 103.273 88.4802 99.9711 57 99.9711C7 99.9711 0 72.6928 0 39.3464C0 6 45.5198 0 77 0C108.48 0 114 17.616 114 39.3464Z" fill="#0E1C67"/>
<path d="M27.668 50.0003C27.668 50.0003 38.3346 28.667 57.0013 28.667C75.668 28.667 86.3346 50.0003 86.3346 50.0003C86.3346 50.0003 75.668 71.3337 57.0013 71.3337C38.3346 71.3337 27.668 50.0003 27.668 50.0003Z" stroke="#DA443A" stroke-width="2" stroke-linecap="round" stroke-linejoin="round"/>
<path d="M57 58C61.4183 58 65 54.4183 65 50C65 45.5817 61.4183 42 57 42C52.5817 42 49 45.5817 49 50C49 54.4183 52.5817 58 57 58Z" stroke="#DA443A" stroke-width="2" stroke-linecap="round" stroke-linejoin="round"/>
</svg>
