<svg width="115" height="101" viewBox="0 0 115 101" fill="none" xmlns="http://www.w3.org/2000/svg">
<path d="M-1.9032e-06 35.4707C1.19778e-06 -0.000376221 26.0198 -0.000373946 57.5 -0.000371194C88.9802 -0.000368442 114.5 28.4707 114.5 60.6243C114.5 99.9707 68.4802 100.971 37 100.971C5.51977 100.971 -3.80294e-06 57.2011 -1.9032e-06 35.4707Z" fill="#0E1C67"/>
<path d="M55.5 24.9707L56.4379 24.6237C56.2926 24.2312 55.9184 23.9707 55.5 23.9707C55.0816 23.9707 54.7074 24.2312 54.5621 24.6237L55.5 24.9707ZM61.2205 40.4302L60.2827 40.7772C60.3793 41.0384 60.5805 41.2475 60.8378 41.354C61.0951 41.4606 61.3852 41.4551 61.6383 41.3387L61.2205 40.4302ZM49.7602 40.4823L49.3424 41.3909C49.5954 41.5073 49.8855 41.5128 50.1429 41.4062C50.4002 41.2996 50.6014 41.0906 50.698 40.8294L49.7602 40.4823ZM41.8938 36.8652L42.3115 35.9567C41.9314 35.7819 41.4826 35.8622 41.1867 36.1581C40.8908 36.454 40.8104 36.9028 40.9852 37.283L41.8938 36.8652ZM45.5107 44.7312L45.8577 45.6691C46.1189 45.5724 46.328 45.3712 46.4346 45.1139C46.5412 44.8566 46.5356 44.5665 46.4193 44.3135L45.5107 44.7312ZM30 50.4707L29.653 49.5329C29.2605 49.6781 29 50.0523 29 50.4707C29 50.8891 29.2605 51.2633 29.653 51.4086L30 50.4707ZM45.4591 56.1911L46.3677 56.6089C46.484 56.3558 46.4896 56.0657 46.383 55.8084C46.2764 55.5511 46.0673 55.3499 45.8061 55.2532L45.4591 56.1911ZM41.8938 63.9449L40.9852 63.5271C40.8104 63.9073 40.8908 64.3561 41.1867 64.652C41.4826 64.9479 41.9314 65.0282 42.3115 64.8534L41.8938 63.9449ZM49.7187 60.3468L50.6565 59.9998C50.5598 59.7386 50.3586 59.5295 50.1013 59.423C49.844 59.3164 49.5539 59.3219 49.3009 59.4383L49.7187 60.3468ZM55.5 75.9707L54.5621 76.3177C54.7074 76.7102 55.0816 76.9707 55.5 76.9707C55.9184 76.9707 56.2926 76.7102 56.4379 76.3177L55.5 75.9707ZM61.262 60.399L61.6798 59.4905C61.4268 59.3741 61.1367 59.3686 60.8794 59.4752C60.622 59.5817 60.4208 59.7908 60.3242 60.052L61.262 60.399ZM68.9734 63.9449L68.5556 64.8534C68.9358 65.0282 69.3846 64.9479 69.6805 64.652C69.9764 64.3561 70.0568 63.9073 69.882 63.5271L68.9734 63.9449ZM65.4274 56.2331L65.0804 55.2952C64.8192 55.3919 64.6101 55.5931 64.5035 55.8504C64.3969 56.1077 64.4025 56.3978 64.5188 56.6509L65.4274 56.2331ZM81 50.4707L81.347 51.4086C81.7395 51.2633 82 50.8891 82 50.4707C82 50.0523 81.7395 49.6781 81.347 49.5329L81 50.4707ZM65.3758 44.6892L64.4672 44.2715C64.3509 44.5245 64.3453 44.8146 64.4519 45.0719C64.5585 45.3292 64.7676 45.5304 65.0288 45.6271L65.3758 44.6892ZM68.9734 36.8652L69.882 37.283C70.0568 36.9028 69.9764 36.454 69.6805 36.1581C69.3846 35.8622 68.9358 35.7819 68.5556 35.9567L68.9734 36.8652ZM54.5621 25.3177L60.2827 40.7772L62.1584 40.0831L56.4379 24.6237L54.5621 25.3177ZM50.698 40.8294L56.4379 25.3177L54.5621 24.6237L48.8223 40.1353L50.698 40.8294ZM41.476 37.7738L49.3424 41.3909L50.1779 39.5738L42.3115 35.9567L41.476 37.7738ZM46.4193 44.3135L42.8023 36.4475L40.9852 37.283L44.6022 45.149L46.4193 44.3135ZM30.347 51.4086L45.8577 45.6691L45.1637 43.7934L29.653 49.5329L30.347 51.4086ZM45.8061 55.2532L30.347 49.5329L29.653 51.4086L45.1121 57.1289L45.8061 55.2532ZM42.8023 64.3626L46.3677 56.6089L44.5506 55.7733L40.9852 63.5271L42.8023 64.3626ZM49.3009 59.4383L41.476 63.0363L42.3115 64.8534L50.1364 61.2554L49.3009 59.4383ZM56.4379 75.6237L50.6565 59.9998L48.7808 60.6939L54.5621 76.3177L56.4379 75.6237ZM60.3242 60.052L54.5621 75.6237L56.4379 76.3177L62.1999 60.7461L60.3242 60.052ZM69.3912 63.0363L61.6798 59.4905L60.8443 61.3076L68.5556 64.8534L69.3912 63.0363ZM64.5188 56.6509L68.0649 64.3626L69.882 63.5271L66.3359 55.8153L64.5188 56.6509ZM80.653 49.5329L65.0804 55.2952L65.7744 57.1709L81.347 51.4086L80.653 49.5329ZM65.0288 45.6271L80.653 51.4086L81.347 49.5329L65.7228 43.7514L65.0288 45.6271ZM68.0649 36.4475L64.4672 44.2715L66.2843 45.107L69.882 37.283L68.0649 36.4475ZM61.6383 41.3387L69.3912 37.7738L68.5556 35.9567L60.8027 39.5216L61.6383 41.3387Z" fill="#DA443A"/>
</svg>
